<?xml version="1.0" encoding="utf-8"?>
<!-- Generator: Adobe Illustrator 27.9.0, SVG Export Plug-In . SVG Version: 6.00 Build 0)  -->
<svg version="1.1" id="Layer_1" xmlns="http://www.w3.org/2000/svg" xmlns:xlink="http://www.w3.org/1999/xlink" x="0px" y="0px"
	 viewBox="0 0 83.6 34" style="enable-background:new 0 0 83.6 34;" xml:space="preserve">
<style type="text/css">
	.st0{fill:#9DC41A;}
	.st1{fill:#006633;}
	.st2{fill:#009FE3;}
	.st3{fill:#1D71B8;}
	.st4{fill:#6BA230;}
	.st5{fill:#4598CE;}
	.st6{fill:#005492;}
	.st7{fill:#BE1622;}
	.st8{fill:#E94E1B;}
	.st9{fill:#A3195B;}
	.st10{fill:#E6007E;}
	.st11{fill:#F7BF00;}
	.st12{fill:#FFDF00;}
	.st13{fill:#F6A000;}
	.st14{fill:#3AAA35;}
	.st15{fill:#FCBF00;}
</style>
<path class="st0" d="M53.7,12.1c-0.2-0.2-0.3-0.5-0.3-0.8c0-0.2,0-0.3,0.1-0.5c0.1-0.1,0.2-0.2,0.3-0.4l2.4-2
	c0.3-0.3,0.6-0.5,0.8-0.7c0.2-0.2,0.3-0.4,0.5-0.6c0.1-0.2,0.2-0.3,0.2-0.4s0.1-0.3,0.1-0.4c0-0.3-0.1-0.5-0.2-0.6S57.2,5.5,57,5.4
	s-0.3-0.1-0.5-0.2c-0.2,0-0.3,0-0.4,0c-0.3,0-0.5,0-0.8,0.1c-0.3,0.1-0.5,0.2-0.8,0.3c-0.1,0.1-0.2,0.1-0.3,0.1
	c-0.2,0-0.3-0.1-0.4-0.2c0-0.1-0.1-0.2-0.1-0.3c0-0.1,0-0.2,0.1-0.2c0-0.1,0.1-0.1,0.2-0.2c0.7-0.4,1.4-0.6,2.2-0.6
	c0.4,0,0.7,0.1,1,0.2c0.3,0.1,0.6,0.2,0.8,0.4c0.2,0.2,0.4,0.4,0.5,0.7c0.1,0.3,0.2,0.6,0.2,0.9c0,0.2,0,0.5-0.1,0.7
	c-0.1,0.2-0.2,0.4-0.3,0.7s-0.3,0.5-0.6,0.7S57.2,9,56.8,9.3l-2.3,2c0,0,0,0.1,0,0.1c0,0,0,0.1,0,0.1c0,0,0,0,0.1,0h3.8
	c0.2,0,0.3,0.1,0.4,0.1c0.1,0.1,0.1,0.2,0.1,0.3s0,0.2-0.1,0.3c-0.1,0.1-0.2,0.1-0.4,0.1h-3.9C54.1,12.4,53.8,12.3,53.7,12.1"/>
<path class="st0" d="M62.2,5.4c-0.2,0.1-0.4,0.2-0.5,0.4c-0.1,0.2-0.2,0.3-0.2,0.5c0,0.2-0.1,0.3-0.1,0.4c0,0.2,0,0.5-0.1,0.8
	c0,0.3,0,0.6,0,0.9s0,0.6,0,0.9c0,0.3,0,0.6,0.1,0.8c0,0.1,0,0.2,0.1,0.4c0,0.2,0.1,0.3,0.2,0.5c0.1,0.2,0.3,0.3,0.5,0.4
	c0.2,0.1,0.5,0.2,0.8,0.2s0.6-0.1,0.8-0.2s0.4-0.2,0.5-0.4s0.2-0.3,0.2-0.5s0.1-0.3,0.1-0.4c0-0.2,0-0.5,0.1-0.8c0-0.3,0-0.6,0-0.9
	s0-0.6,0-0.9s0-0.6-0.1-0.8c0-0.1-0.1-0.2-0.1-0.4c-0.1-0.2-0.1-0.3-0.2-0.5s-0.3-0.3-0.5-0.4c-0.2-0.1-0.5-0.2-0.8-0.2
	S62.4,5.3,62.2,5.4 M61.1,11.8c-0.2-0.2-0.4-0.4-0.5-0.7c-0.1-0.3-0.2-0.6-0.2-0.9c0-0.3,0-0.5-0.1-0.8c0-0.3,0-0.6,0-0.9
	s0-0.6,0-0.9c0-0.3,0-0.6,0.1-0.8c0-0.3,0.1-0.6,0.2-0.9s0.3-0.5,0.5-0.7c0.5-0.5,1.2-0.7,1.9-0.7s1.4,0.2,1.9,0.7
	c0.2,0.2,0.4,0.4,0.5,0.7s0.2,0.6,0.2,0.9c0,0.3,0.1,0.5,0.1,0.8s0,0.6,0,0.9s0,0.6,0,0.9s0,0.6-0.1,0.8c-0.1,0.7-0.3,1.2-0.8,1.6
	c-0.5,0.5-1.2,0.7-1.9,0.7S61.6,12.3,61.1,11.8"/>
<path class="st0" d="M72.3,8.8c0.2,0.3,0.4,0.7,0.4,1.2c0,0.4-0.1,0.7-0.2,1c-0.1,0.3-0.3,0.6-0.6,0.8s-0.6,0.4-0.9,0.5
	s-0.8,0.2-1.2,0.2s-0.9-0.1-1.3-0.2c-0.4-0.1-0.8-0.3-1.1-0.4c-0.2-0.1-0.3-0.2-0.3-0.4c0-0.1,0-0.2,0.1-0.3
	c0.1-0.2,0.2-0.2,0.4-0.2c0.1,0,0.2,0,0.3,0.1c0.2,0.1,0.5,0.2,0.8,0.3c0.3,0.1,0.7,0.2,1,0.2c0.2,0,0.4,0,0.6-0.1s0.4-0.1,0.6-0.2
	c0.2-0.1,0.3-0.2,0.5-0.4c0.1-0.2,0.2-0.4,0.2-0.8c0-0.5-0.2-0.8-0.5-1.1s-0.8-0.4-1.3-0.4h-0.5c-0.2,0-0.3-0.1-0.3-0.1
	c-0.1-0.1-0.1-0.2-0.1-0.3s0-0.2,0.1-0.3c0.1-0.1,0.2-0.1,0.3-0.1h0.6c0.1,0,0.3,0,0.4,0s0.3-0.1,0.5-0.2c0.2-0.1,0.3-0.2,0.4-0.4
	c0.1-0.2,0.2-0.4,0.2-0.6c0-0.2-0.1-0.4-0.1-0.6c-0.1-0.2-0.2-0.3-0.4-0.4s-0.3-0.2-0.5-0.2c-0.2,0-0.4-0.1-0.5-0.1
	c-0.3,0-0.5,0-0.8,0.1c-0.3,0.1-0.5,0.2-0.8,0.4c-0.1,0.1-0.2,0.1-0.3,0.1c-0.2,0-0.3-0.1-0.4-0.2c-0.1-0.1-0.1-0.2-0.1-0.3
	s0-0.2,0.1-0.2c0.1-0.1,0.1-0.1,0.2-0.2c0.7-0.4,1.4-0.6,2.2-0.6c0.4,0,0.7,0.1,1,0.1c0.3,0.1,0.6,0.2,0.8,0.4
	c0.2,0.2,0.4,0.4,0.6,0.7s0.2,0.6,0.2,0.9c0,0.4-0.1,0.8-0.3,1c-0.2,0.3-0.5,0.5-0.8,0.6C71.7,8.2,72,8.5,72.3,8.8"/>
<path class="st0" d="M76,5.4c-0.2,0.1-0.4,0.2-0.5,0.4c-0.1,0.2-0.2,0.3-0.2,0.5c-0.1,0.2-0.1,0.3-0.1,0.4c0,0.2,0,0.5-0.1,0.8
	s0,0.6,0,0.9s0,0.6,0,0.9c0,0.3,0,0.6,0.1,0.8c0,0.1,0.1,0.2,0.1,0.4c0.1,0.2,0.1,0.3,0.2,0.5s0.3,0.3,0.5,0.4s0.5,0.2,0.8,0.2
	s0.6-0.1,0.8-0.2s0.4-0.2,0.5-0.4c0.1-0.2,0.2-0.3,0.2-0.5s0.1-0.3,0.1-0.4c0-0.2,0-0.5,0.1-0.8c0-0.3,0-0.6,0-0.9s0-0.6,0-0.9
	c0-0.3,0-0.6-0.1-0.8c0-0.1-0.1-0.2-0.1-0.4c-0.1-0.2-0.1-0.3-0.2-0.5c-0.1-0.2-0.3-0.3-0.5-0.4c-0.2-0.1-0.5-0.2-0.8-0.2
	S76.2,5.3,76,5.4 M74.9,11.8c-0.2-0.2-0.4-0.4-0.5-0.7c-0.1-0.3-0.2-0.6-0.2-0.9c0-0.3-0.1-0.5-0.1-0.8s0-0.6,0-0.9s0-0.6,0-0.9
	s0-0.6,0.1-0.8c0-0.3,0.1-0.6,0.2-0.9s0.3-0.5,0.5-0.7c0.5-0.5,1.2-0.7,1.9-0.7s1.4,0.2,1.9,0.7c0.2,0.2,0.4,0.4,0.5,0.7
	s0.2,0.6,0.2,0.9c0,0.3,0.1,0.5,0.1,0.8s0,0.6,0,0.9s0,0.6,0,0.9c0,0.3,0,0.6-0.1,0.8c-0.1,0.7-0.3,1.2-0.8,1.6
	c-0.5,0.5-1.2,0.7-1.9,0.7S75.4,12.3,74.9,11.8"/>
<path class="st1" d="M44,3c-0.3,0-0.5,0.2-0.5,0.5v12.4c0,0.3,0.2,0.5,0.5,0.5s0.5-0.2,0.5-0.5V3.5C44.5,3.2,44.3,3,44,3"/>
<path class="st2" d="M9.2,12.6c-0.3,0-0.5,0.2-0.5,0.5v3.2c0,0.3,0.2,0.5,0.5,0.5s0.5-0.2,0.5-0.5v-3.2C9.7,12.8,9.5,12.6,9.2,12.6"
	/>
<path class="st3" d="M11.9,7c-0.3,0-0.5,0.2-0.5,0.5V15c0,0.3,0.2,0.5,0.5,0.5s0.5-0.2,0.5-0.5V7.5C12.4,7.2,12.2,7,11.9,7"/>
<path class="st4" d="M46.7,2.4c-0.3,0-0.5,0.2-0.5,0.5v11.3c0,0.3,0.2,0.5,0.5,0.5s0.5-0.2,0.5-0.5V2.9C47.2,2.7,47,2.4,46.7,2.4"/>
<path class="st0" d="M49.4,3.4c-0.3,0-0.5,0.2-0.5,0.5V14c0,0.3,0.2,0.5,0.5,0.5s0.5-0.2,0.5-0.5V3.9C49.9,3.6,49.7,3.4,49.4,3.4"/>
<path class="st5" d="M14.5,2.6c-0.3,0-0.5,0.2-0.5,0.5v11.1c0,0.3,0.2,0.5,0.5,0.5s0.5-0.2,0.5-0.5V3.1C15,2.8,14.8,2.6,14.5,2.6"/>
<path class="st6" d="M17.2,4.1c-0.3,0-0.5,0.2-0.5,0.5v8.9c0,0.3,0.2,0.5,0.5,0.5s0.5-0.2,0.5-0.5V4.6C17.7,4.3,17.5,4.1,17.2,4.1"
	/>
<path class="st7" d="M19.9,4c-0.3,0-0.5,0.2-0.5,0.5v8.8c0,0.3,0.2,0.5,0.5,0.5s0.5-0.2,0.5-0.5V4.5C20.4,4.2,20.2,4,19.9,4"/>
<path class="st8" d="M22.6,4.9c-0.3,0-0.5,0.2-0.5,0.5v8.9c0,0.3,0.2,0.5,0.5,0.5s0.5-0.2,0.5-0.5v-9C23.1,5.1,22.9,4.9,22.6,4.9"/>
<path class="st9" d="M25.2,3.8c-0.3,0-0.5,0.2-0.5,0.5v10.8c0,0.3,0.2,0.5,0.5,0.5s0.5-0.2,0.5-0.5V4.3C25.8,4,25.5,3.8,25.2,3.8"/>
<path class="st10" d="M27.9,4.7c-0.3,0-0.5,0.2-0.5,0.5v9.8c0,0.3,0.2,0.5,0.5,0.5s0.5-0.2,0.5-0.5V5.3C28.4,5,28.2,4.7,27.9,4.7"/>
<path class="st11" d="M30.6,7.1c-0.3,0-0.5,0.2-0.5,0.5v8.1c0,0.3,0.2,0.5,0.5,0.5s0.5-0.2,0.5-0.5V7.6C31.1,7.3,30.9,7.1,30.6,7.1"
	/>
<path class="st12" d="M33.3,7.8c-0.3,0-0.5,0.2-0.5,0.5v9.1c0,0.3,0.2,0.5,0.5,0.5s0.5-0.2,0.5-0.5V8.3C33.8,8,33.6,7.8,33.3,7.8"/>
<path class="st13" d="M38.7,4.4c-0.3,0-0.5,0.2-0.5,0.5v14.2c0,0.3,0.2,0.5,0.5,0.5s0.5-0.2,0.5-0.5V4.9C39.2,4.6,38.9,4.4,38.7,4.4
	"/>
<path class="st14" d="M41.3,3.6c-0.3,0-0.5,0.2-0.5,0.5v13.2c0,0.3,0.2,0.5,0.5,0.5s0.5-0.2,0.5-0.5V4.1C41.9,3.9,41.6,3.6,41.3,3.6
	"/>
<path class="st15" d="M36,5.4c-0.3,0-0.5,0.2-0.5,0.5v13.9c0,0.3,0.2,0.5,0.5,0.5s0.5-0.2,0.5-0.5V5.9C36.5,5.6,36.3,5.4,36,5.4"/>
<path class="st6" d="M41.7,27.9H39l1.4-2.4c0.1-0.2,0.2-0.5,0.1-0.8s-0.2-0.5-0.5-0.6c-0.2-0.1-0.3-0.1-0.5-0.1
	c-0.4,0-0.7,0.2-0.9,0.5L35.4,30c-0.3,0.5-0.1,1.1,0.4,1.4c0.2,0.1,0.3,0.1,0.5,0.1c0.4,0,0.7-0.2,0.9-0.5l0.7-1.1h3.9
	c0.6,0,1-0.5,1-1S42.3,27.9,41.7,27.9"/>
<path class="st6" d="M40.2,21.7l-0.9,1.5c0.1,0,0.1,0,0.2,0c0.6,0,1.2,0.3,1.5,0.8v0c0,0,0,0,0,0.1l3.8,6.9c0.2,0.3,0.5,0.5,0.9,0.5
	c0.2,0,0.3,0,0.5-0.1c0.5-0.3,0.7-0.9,0.4-1.4L42,21.7c-0.2-0.3-0.5-0.5-0.9-0.5S40.4,21.4,40.2,21.7L40.2,21.7L40.2,21.7z"/>
<path class="st6" d="M63.8,28.6L63.8,28.6C63.8,28.6,63.8,28.6,63.8,28.6L60,21.7c-0.2-0.3-0.5-0.5-0.9-0.5c-0.2,0-0.3,0-0.5,0.1
	c-0.2,0.1-0.4,0.4-0.5,0.6s0,0.5,0.1,0.8l4.6,8.3c0.2,0.3,0.5,0.5,0.9,0.5s0.7-0.2,0.9-0.5l0,0l0.9-1.5c-0.1,0-0.1,0-0.2,0
	C64.7,29.4,64.1,29.1,63.8,28.6"/>
<path class="st6" d="M66.2,28.3l3.2-5.6c0.1-0.2,0.2-0.5,0.1-0.8s-0.2-0.5-0.5-0.6c-0.2-0.1-0.3-0.1-0.5-0.1c-0.4,0-0.7,0.2-0.9,0.5
	l-3.2,5.6c-0.1,0.2-0.2,0.5-0.1,0.8s0.2,0.5,0.5,0.6c0.2,0.1,0.5,0.2,0.8,0.1C65.8,28.7,66,28.5,66.2,28.3"/>
<path class="st6" d="M31.3,21.4c-0.5-0.2-1.1-0.3-1.6-0.3c-2.9,0-5.2,2.3-5.2,5.2s2.3,5.2,5.2,5.2c1.5,0,2.9-0.6,3.9-1.8
	c0.4-0.4,0.3-1.1-0.1-1.4C33.1,28,32.4,28,32,28.4c-0.6,0.7-1.5,1.1-2.4,1.1c-1.8,0-3.2-1.4-3.2-3.2s1.4-3.2,3.2-3.2
	c0.3,0,0.7,0,1,0.2c0.3,0.1,0.5,0.1,0.8-0.1c0.2-0.1,0.4-0.3,0.5-0.6C32.1,22.1,31.8,21.6,31.3,21.4"/>
<path class="st6" d="M33.9,25.4h-3.3c-0.6,0-1,0.5-1,1s0.5,1,1,1h2.2c0.7,0,1.3,0.5,1.6,1.1c0.3-0.7,0.5-1.4,0.5-2.2
	C34.9,25.8,34.4,25.4,33.9,25.4"/>
<path class="st6" d="M16.8,21.2c-0.6,0-1,0.5-1,1v5.6c0,0.6,0.5,1,1,1s1-0.5,1-1v-5.6C17.8,21.6,17.4,21.2,16.8,21.2"/>
<path class="st6" d="M22.8,29.5h-5.9c-0.4,0-0.7-0.1-1-0.3v1.4c0,0.6,0.5,1,1,1h6c0.6,0,1-0.5,1-1S23.4,29.5,22.8,29.5"/>
<path class="st6" d="M49.3,23.9c-0.6,0-1,0.5-1,1v5.6c0,0.6,0.5,1,1,1s1-0.5,1-1v-5.6C50.3,24.3,49.9,23.9,49.3,23.9"/>
<path class="st6" d="M54.9,31.2c0.2,0.2,0.5,0.4,0.8,0.4c0.2,0,0.5-0.1,0.7-0.2c0.2-0.2,0.3-0.4,0.3-0.7c0-0.3-0.1-0.5-0.2-0.7
	l-2.1-2.5l0.2,0c1.4-0.4,2.4-1.6,2.4-3.1c0-1.8-1.4-3.2-3.2-3.2h-1.5h0h-3c-0.6,0-1,0.5-1,1v1.4c0.3-0.2,0.7-0.3,1-0.3h3h0h0h1.5
	c0.6,0,1.1,0.5,1.1,1.1s-0.5,1.1-1.1,1.1h-1.6c-0.4,0-0.8,0.2-0.9,0.6c-0.2,0.4-0.1,0.8,0.2,1.1L54.9,31.2L54.9,31.2z"/>
<path class="st6" d="M9.2,27.9H6.6l1.4-2.4C8.1,25.2,8.1,25,8,24.7c-0.1-0.3-0.2-0.5-0.5-0.6C7.4,24,7.2,23.9,7,23.9
	c-0.4,0-0.7,0.2-0.9,0.5L3,30c-0.3,0.5-0.1,1.1,0.4,1.4c0.2,0.1,0.3,0.1,0.5,0.1c0.4,0,0.7-0.2,0.9-0.5l0.7-1.1h3.9c0.6,0,1-0.5,1-1
	S9.8,27.9,9.2,27.9"/>
<path class="st6" d="M9.5,21.7c-0.2-0.3-0.5-0.5-0.9-0.5s-0.7,0.2-0.9,0.5l0,0l-0.9,1.5c0.1,0,0.1,0,0.2,0c0.6,0,1.2,0.3,1.5,0.8v0
	c0,0,0,0,0,0.1l3.8,6.9c0.2,0.3,0.5,0.5,0.9,0.5c0.2,0,0.3,0,0.5-0.1c0.5-0.3,0.7-0.9,0.4-1.4L9.5,21.7L9.5,21.7z"/>
<path class="st6" d="M78.6,21.2H72c-0.6,0-1,0.5-1,1v5.6c0,0.6,0.5,1,1,1s1-0.5,1-1v-4.6h5.6c0.6,0,1-0.5,1-1S79.2,21.2,78.6,21.2"
	/>
<path class="st6" d="M78.6,29.5H72c-0.4,0-0.7-0.1-1-0.3v1.4c0,0.6,0.5,1,1,1h6.6c0.6,0,1-0.5,1-1S79.2,29.5,78.6,29.5"/>
<path class="st6" d="M78,26.4c0-0.6-0.5-1-1-1h-2.2c-0.6,0-1,0.5-1,1s0.5,1,1,1H77C77.5,27.4,78,26.9,78,26.4"/>
</svg>
