<?xml version="1.0" encoding="utf-8"?>
<!-- Generator: Adobe Illustrator 27.9.0, SVG Export Plug-In . SVG Version: 6.00 Build 0)  -->
<svg version="1.1" id="Layer_1" xmlns="http://www.w3.org/2000/svg" xmlns:xlink="http://www.w3.org/1999/xlink" x="0px" y="0px"
	 viewBox="0 0 135.8 34" style="enable-background:new 0 0 135.8 34;" xml:space="preserve">
<style type="text/css">
	.st0{fill:#164194;}
	.st1{fill:#FAEA27;}
</style>
<rect x="3.6" y="3.3" class="st0" width="41.8" height="27.9"/>
<polygon class="st1" points="23.6,9.4 24.5,8.7 25.4,9.4 25.1,8.3 26,7.7 24.9,7.7 24.5,6.6 24.2,7.7 23.1,7.7 24,8.3 "/>
<polygon class="st1" points="19.1,10.6 20,9.9 20.8,10.6 20.5,9.5 21.4,8.9 20.3,8.9 20,7.8 19.6,8.9 18.5,8.9 19.4,9.5 "/>
<polygon class="st1" points="16.6,11.2 16.3,12.2 15.2,12.2 16.1,12.9 15.7,13.9 16.6,13.3 17.5,13.9 17.2,12.9 18.1,12.2 17,12.2 
	"/>
<polygon class="st1" points="15.4,17.8 16.3,18.5 15.9,17.4 16.8,16.8 15.7,16.8 15.4,15.7 15.1,16.8 14,16.8 14.9,17.4 14.5,18.5 
	"/>
<polygon class="st1" points="17,21.4 16.6,20.3 16.3,21.4 15.2,21.4 16.1,22 15.7,23.1 16.6,22.4 17.5,23.1 17.2,22 18.1,21.4 "/>
<polygon class="st1" points="20.3,24.7 20,23.7 19.6,24.7 18.5,24.7 19.4,25.4 19.1,26.4 20,25.8 20.9,26.4 20.5,25.4 21.4,24.7 "/>
<polygon class="st1" points="24.9,25.9 24.5,24.9 24.2,25.9 23.1,25.9 24,26.6 23.6,27.6 24.5,27 25.4,27.6 25.1,26.6 26,25.9 "/>
<polygon class="st1" points="29.4,24.7 29.1,23.7 28.8,24.7 27.6,24.7 28.5,25.4 28.2,26.4 29.1,25.8 30,26.4 29.6,25.4 30.5,24.7 
	"/>
<polygon class="st1" points="32.8,21.4 32.4,20.3 32.1,21.4 31,21.4 31.9,22 31.6,23.1 32.4,22.4 33.3,23.1 33,22 33.9,21.4 "/>
<polygon class="st1" points="35.1,16.8 34,16.8 33.6,15.7 33.3,16.8 32.2,16.8 33.1,17.4 32.8,18.5 33.6,17.8 34.5,18.5 34.2,17.4 
	"/>
<polygon class="st1" points="31.6,13.9 32.4,13.3 33.3,13.9 33,12.9 33.9,12.2 32.8,12.2 32.4,11.2 32.1,12.2 31,12.2 31.9,12.9 "/>
<polygon class="st1" points="29.1,7.8 28.8,8.9 27.7,8.9 28.6,9.5 28.2,10.6 29.1,9.9 30,10.6 29.6,9.5 30.5,8.9 29.4,8.9 "/>
<path class="st0" d="M55.9,11.2l1.3,0.4c-0.2,0.8-0.5,1.3-1,1.7c-0.5,0.4-1.1,0.6-1.8,0.6c-0.9,0-1.7-0.3-2.2-0.9
	c-0.6-0.6-0.9-1.5-0.9-2.6c0-1.1,0.3-2,0.9-2.7c0.6-0.6,1.4-0.9,2.3-0.9c0.8,0,1.5,0.2,2,0.7c0.3,0.3,0.5,0.7,0.7,1.3l-1.4,0.3
	c-0.1-0.4-0.2-0.6-0.5-0.8C55.1,8.1,54.8,8,54.4,8c-0.5,0-0.9,0.2-1.2,0.5c-0.3,0.4-0.5,0.9-0.5,1.8c0,0.9,0.2,1.5,0.5,1.9
	c0.3,0.4,0.7,0.6,1.2,0.6c0.4,0,0.7-0.1,1-0.4C55.6,12.1,55.8,11.7,55.9,11.2"/>
<path class="st0" d="M59.5,11.3c0,0.5,0.1,0.9,0.4,1.1s0.5,0.4,0.9,0.4s0.6-0.1,0.9-0.4c0.2-0.3,0.4-0.6,0.4-1.1s-0.1-0.9-0.4-1.1
	S61,9.7,60.7,9.7s-0.6,0.1-0.9,0.4C59.6,10.4,59.5,10.8,59.5,11.3 M58.1,11.2c0-0.4,0.1-0.9,0.3-1.3c0.2-0.4,0.5-0.7,0.9-0.9
	c0.4-0.2,0.8-0.3,1.3-0.3c0.8,0,1.4,0.2,1.9,0.7s0.7,1.1,0.7,1.9s-0.2,1.4-0.7,1.9c-0.5,0.5-1.1,0.7-1.8,0.7c-0.5,0-0.9-0.1-1.3-0.3
	c-0.4-0.2-0.7-0.5-0.9-0.9S58.1,11.8,58.1,11.2"/>
<path class="st0" d="M67.4,8.8h1.3v5h-1.3V8.8z M67.4,6.9h1.3v1.2h-1.3C67.4,8.1,67.4,6.9,67.4,6.9z M63.7,8.8h0.7V8.4
	c0-0.4,0-0.7,0.1-0.9c0.1-0.2,0.2-0.4,0.5-0.5s0.5-0.2,0.9-0.2s0.7,0.1,1.1,0.2l-0.2,0.9c-0.2-0.1-0.4-0.1-0.6-0.1S66,7.8,65.9,7.9
	c-0.1,0.1-0.1,0.3-0.1,0.5v0.4h1v1h-1v3.9h-1.3V9.8h-0.7V8.8L63.7,8.8z"/>
<path class="st0" d="M74.6,13.7h-1.3v-2.5c0-0.5,0-0.9-0.1-1C73.2,10,73.1,9.9,73,9.8c-0.1-0.1-0.3-0.1-0.5-0.1
	c-0.2,0-0.4,0.1-0.6,0.2c-0.2,0.1-0.3,0.3-0.4,0.5c-0.1,0.2-0.1,0.6-0.1,1.1v2.2h-1.3v-5h1.2v0.7c0.4-0.6,1-0.8,1.6-0.8
	c0.3,0,0.6,0.1,0.8,0.2c0.2,0.1,0.4,0.2,0.5,0.4c0.1,0.2,0.2,0.4,0.3,0.6c0,0.2,0.1,0.5,0.1,0.9L74.6,13.7L74.6,13.7z"/>
<path class="st0" d="M78.7,11.4c-0.2,0.1-0.4,0.1-0.8,0.2s-0.6,0.1-0.7,0.2c-0.2,0.1-0.3,0.3-0.3,0.5s0.1,0.3,0.2,0.5
	c0.1,0.1,0.3,0.2,0.5,0.2c0.2,0,0.5-0.1,0.7-0.2c0.2-0.1,0.3-0.3,0.3-0.4c0-0.1,0-0.3,0-0.6L78.7,11.4L78.7,11.4z M77,10.3l-1.2-0.2
	c0.1-0.5,0.4-0.8,0.7-1.1c0.3-0.2,0.8-0.4,1.5-0.4c0.6,0,1,0.1,1.3,0.2s0.5,0.3,0.6,0.5S80,10,80,10.6v1.5c0,0.4,0,0.8,0,1
	c0,0.2,0.1,0.4,0.2,0.7H79c0-0.1-0.1-0.2-0.1-0.4c0-0.1,0-0.1,0-0.1c-0.2,0.2-0.5,0.4-0.7,0.5s-0.5,0.2-0.8,0.2
	c-0.5,0-0.9-0.1-1.2-0.4s-0.4-0.6-0.4-1.1c0-0.3,0.1-0.5,0.2-0.8s0.3-0.4,0.6-0.5c0.2-0.1,0.6-0.2,1-0.3c0.6-0.1,1-0.2,1.3-0.3v-0.1
	c0-0.2-0.1-0.4-0.2-0.5c-0.1-0.1-0.4-0.2-0.7-0.2c-0.2,0-0.4,0.1-0.5,0.1C77.1,9.9,77,10.1,77,10.3"/>
<path class="st0" d="M85.8,13.7h-1.3v-2.5c0-0.5,0-0.9-0.1-1c-0.1-0.2-0.1-0.3-0.3-0.4c-0.1-0.1-0.3-0.1-0.5-0.1
	c-0.2,0-0.4,0.1-0.6,0.2c-0.2,0.1-0.3,0.3-0.4,0.5c-0.1,0.2-0.1,0.6-0.1,1.1v2.2h-1.3v-5h1.2v0.7c0.4-0.6,1-0.8,1.6-0.8
	c0.3,0,0.6,0.1,0.8,0.2c0.2,0.1,0.4,0.2,0.5,0.4c0.1,0.2,0.2,0.4,0.3,0.6c0,0.2,0.1,0.5,0.1,0.9L85.8,13.7L85.8,13.7z"/>
<path class="st0" d="M91.5,10.2l-1.3,0.2c0-0.3-0.1-0.4-0.3-0.6c-0.1-0.1-0.4-0.2-0.6-0.2c-0.3,0-0.6,0.1-0.8,0.3
	c-0.2,0.2-0.3,0.6-0.3,1.1c0,0.6,0.1,1,0.3,1.2c0.2,0.2,0.5,0.4,0.8,0.4c0.2,0,0.5-0.1,0.6-0.2c0.2-0.1,0.3-0.4,0.3-0.7l1.3,0.2
	c-0.1,0.6-0.4,1-0.8,1.3c-0.4,0.3-0.9,0.4-1.5,0.4c-0.7,0-1.3-0.2-1.7-0.7s-0.6-1.1-0.6-1.9s0.2-1.5,0.6-1.9s1-0.7,1.8-0.7
	c0.6,0,1.1,0.1,1.4,0.4C91.1,9.3,91.3,9.7,91.5,10.2"/>
<path class="st0" d="M92.5,8.8h1.3v5h-1.3V8.8z M92.5,6.9h1.3v1.2h-1.3C92.5,8.1,92.5,6.9,92.5,6.9z"/>
<path class="st0" d="M97.9,11.4c-0.2,0.1-0.4,0.1-0.8,0.2s-0.6,0.1-0.7,0.2c-0.2,0.1-0.3,0.3-0.3,0.5s0.1,0.3,0.2,0.5
	c0.1,0.1,0.3,0.2,0.5,0.2c0.2,0,0.5-0.1,0.7-0.2c0.2-0.1,0.3-0.3,0.3-0.4c0-0.1,0-0.3,0-0.6L97.9,11.4L97.9,11.4z M96.1,10.3
	l-1.2-0.2c0.1-0.5,0.4-0.8,0.7-1.1c0.3-0.2,0.8-0.4,1.5-0.4c0.6,0,1,0.1,1.3,0.2s0.5,0.3,0.6,0.5c0.1,0.2,0.2,0.6,0.2,1.2v1.5
	c0,0.4,0,0.8,0,1c0,0.2,0.1,0.4,0.2,0.7h-1.3c0-0.1-0.1-0.2-0.1-0.4c0-0.1,0-0.1,0-0.1c-0.2,0.2-0.5,0.4-0.7,0.5s-0.5,0.2-0.8,0.2
	c-0.5,0-0.9-0.1-1.2-0.4c-0.3-0.3-0.4-0.6-0.4-1.1c0-0.3,0.1-0.5,0.2-0.8s0.3-0.4,0.6-0.5c0.2-0.1,0.6-0.2,1-0.3
	c0.6-0.1,1-0.2,1.3-0.3v-0.1c0-0.2-0.1-0.4-0.2-0.5c-0.1-0.1-0.4-0.2-0.7-0.2c-0.2,0-0.4,0.1-0.5,0.1C96.3,9.9,96.2,10.1,96.1,10.3"
	/>
<path class="st0" d="M101.5,11.1c0,0.5,0.1,0.9,0.2,1.1c0.2,0.3,0.5,0.5,0.9,0.5c0.3,0,0.6-0.1,0.8-0.4s0.3-0.6,0.3-1.1
	c0-0.6-0.1-1-0.3-1.2s-0.5-0.4-0.8-0.4s-0.6,0.1-0.8,0.4S101.5,10.6,101.5,11.1 M105,13.7h-1.2V13c-0.2,0.3-0.4,0.5-0.7,0.6
	c-0.3,0.1-0.5,0.2-0.8,0.2c-0.6,0-1.1-0.2-1.5-0.7s-0.6-1.1-0.6-1.9s0.2-1.5,0.6-1.9s0.9-0.7,1.5-0.7c0.5,0,1,0.2,1.4,0.7V6.9h1.3
	L105,13.7L105,13.7z"/>
<path class="st0" d="M107.4,11.3c0,0.5,0.1,0.9,0.4,1.1c0.2,0.3,0.5,0.4,0.9,0.4s0.6-0.1,0.9-0.4c0.2-0.3,0.4-0.6,0.4-1.1
	s-0.1-0.9-0.4-1.1s-0.5-0.4-0.9-0.4s-0.6,0.1-0.9,0.4C107.5,10.4,107.4,10.8,107.4,11.3 M106,11.2c0-0.4,0.1-0.9,0.3-1.3
	c0.2-0.4,0.5-0.7,0.9-0.9c0.4-0.2,0.8-0.3,1.3-0.3c0.8,0,1.4,0.2,1.9,0.7s0.7,1.1,0.7,1.9s-0.2,1.4-0.7,1.9
	c-0.5,0.5-1.1,0.7-1.8,0.7c-0.5,0-0.9-0.1-1.3-0.3c-0.4-0.2-0.7-0.5-0.9-0.9S106,11.8,106,11.2"/>
<path class="st0" d="M116.1,11.2c0,0.6,0.1,1,0.3,1.2c0.2,0.3,0.5,0.4,0.8,0.4s0.6-0.1,0.8-0.4s0.3-0.6,0.3-1.2
	c0-0.5-0.1-0.9-0.3-1.2s-0.5-0.4-0.8-0.4s-0.6,0.1-0.8,0.4S116.1,10.7,116.1,11.2 M114.8,8.8h1.2v0.7c0.2-0.2,0.4-0.4,0.6-0.6
	c0.3-0.2,0.6-0.2,0.9-0.2c0.6,0,1.1,0.2,1.5,0.7c0.4,0.4,0.6,1.1,0.6,1.9s-0.2,1.5-0.6,1.9c-0.4,0.5-0.9,0.7-1.5,0.7
	c-0.3,0-0.5-0.1-0.8-0.2c-0.2-0.1-0.5-0.3-0.7-0.6v2.5h-1.3L114.8,8.8L114.8,8.8z"/>
<path class="st0" d="M123.6,10.8c0-0.4-0.1-0.7-0.3-0.9s-0.4-0.3-0.7-0.3c-0.3,0-0.5,0.1-0.7,0.3s-0.3,0.5-0.3,0.9L123.6,10.8
	L123.6,10.8z M123.6,12.2l1.3,0.2c-0.2,0.5-0.4,0.9-0.8,1.1c-0.4,0.2-0.8,0.4-1.4,0.4c-0.9,0-1.5-0.3-1.9-0.9
	c-0.3-0.4-0.5-1-0.5-1.7c0-0.8,0.2-1.5,0.6-1.9c0.4-0.5,1-0.7,1.6-0.7c0.7,0,1.3,0.2,1.8,0.7s0.6,1.2,0.6,2.2h-3.3
	c0,0.4,0.1,0.7,0.3,0.9c0.2,0.2,0.5,0.3,0.8,0.3c0.2,0,0.4-0.1,0.5-0.2C123.4,12.6,123.5,12.4,123.6,12.2"/>
<rect x="126" y="6.9" class="st0" width="1.3" height="6.9"/>
<path class="st0" d="M131.4,11.4c-0.2,0.1-0.4,0.1-0.8,0.2s-0.6,0.1-0.7,0.2c-0.2,0.1-0.3,0.3-0.3,0.5s0.1,0.3,0.2,0.5
	c0.1,0.1,0.3,0.2,0.5,0.2c0.2,0,0.5-0.1,0.7-0.2c0.2-0.1,0.3-0.3,0.3-0.4c0-0.1,0-0.3,0-0.6L131.4,11.4L131.4,11.4z M129.7,10.3
	l-1.2-0.2c0.1-0.5,0.4-0.8,0.7-1.1c0.3-0.2,0.8-0.4,1.5-0.4c0.6,0,1,0.1,1.3,0.2s0.5,0.3,0.6,0.5s0.2,0.6,0.2,1.2v1.5
	c0,0.4,0,0.8,0,1c0,0.2,0.1,0.4,0.2,0.7h-1.3c0-0.1-0.1-0.2-0.1-0.4c0-0.1,0-0.1,0-0.1c-0.2,0.2-0.5,0.4-0.7,0.5s-0.5,0.2-0.8,0.2
	c-0.5,0-0.9-0.1-1.2-0.4s-0.4-0.6-0.4-1.1c0-0.3,0.1-0.5,0.2-0.8s0.3-0.4,0.6-0.5c0.2-0.1,0.6-0.2,1-0.3c0.6-0.1,1-0.2,1.3-0.3v-0.1
	c0-0.2-0.1-0.4-0.2-0.5c-0.1-0.1-0.4-0.2-0.7-0.2c-0.2,0-0.4,0.1-0.5,0.1C129.8,9.9,129.7,10.1,129.7,10.3"/>
<path class="st0" d="M51.5,18.4h1.4v3.7c0,0.6,0,1,0,1.1c0.1,0.3,0.2,0.5,0.4,0.7s0.5,0.3,0.9,0.3s0.7-0.1,0.9-0.2s0.3-0.4,0.4-0.6
	c0-0.2,0.1-0.6,0.1-1.2v-3.8H57V22c0,0.8,0,1.4-0.1,1.7c-0.1,0.3-0.2,0.6-0.4,0.9c-0.2,0.2-0.5,0.4-0.8,0.6s-0.8,0.2-1.3,0.2
	c-0.6,0-1.1-0.1-1.5-0.2s-0.6-0.4-0.8-0.6c-0.2-0.2-0.3-0.5-0.4-0.8c-0.1-0.4-0.1-1-0.1-1.7L51.5,18.4L51.5,18.4z"/>
<path class="st0" d="M62.9,25.2h-1.3v-2.5c0-0.5,0-0.9-0.1-1c-0.1-0.2-0.1-0.3-0.3-0.4c-0.1-0.1-0.3-0.1-0.5-0.1
	c-0.2,0-0.4,0.1-0.6,0.2c-0.2,0.1-0.3,0.3-0.4,0.5s-0.1,0.6-0.1,1.1v2.2h-1.3v-5h1.2V21c0.4-0.6,1-0.8,1.6-0.8c0.3,0,0.5,0,0.8,0.2
	c0.2,0.1,0.4,0.2,0.5,0.4s0.2,0.4,0.3,0.5c0,0.2,0.1,0.5,0.1,0.9L62.9,25.2L62.9,25.2z"/>
<path class="st0" d="M64.3,20.3h1.3v5h-1.3V20.3z M64.3,18.4h1.3v1.2h-1.3V18.4z"/>
<path class="st0" d="M69.7,22.9c-0.2,0.1-0.4,0.1-0.8,0.2s-0.6,0.1-0.7,0.2c-0.2,0.1-0.3,0.3-0.3,0.5s0.1,0.3,0.2,0.5
	c0.1,0.1,0.3,0.2,0.5,0.2c0.2,0,0.5-0.1,0.7-0.2c0.2-0.1,0.3-0.3,0.3-0.4c0-0.1,0-0.3,0-0.6L69.7,22.9L69.7,22.9z M67.9,19.6h-0.6
	c0-0.1,0-0.1,0-0.2c0-0.3,0.1-0.6,0.2-0.8s0.4-0.3,0.6-0.3c0.1,0,0.2,0,0.3,0s0.3,0.1,0.5,0.2c0.2,0.1,0.4,0.2,0.6,0.2
	c0.1,0,0.2,0,0.2-0.1s0.1-0.2,0.1-0.3h0.6c0,0.4-0.1,0.7-0.2,0.9c-0.1,0.2-0.4,0.3-0.6,0.3c-0.1,0-0.2,0-0.3,0
	c-0.1,0-0.2-0.1-0.5-0.2s-0.5-0.2-0.6-0.2c-0.1,0-0.2,0-0.2,0.1C67.9,19.3,67.9,19.5,67.9,19.6 M67.9,21.8l-1.2-0.2
	c0.1-0.5,0.4-0.8,0.7-1.1c0.3-0.2,0.8-0.4,1.5-0.4c0.6,0,1,0.1,1.3,0.2s0.5,0.3,0.6,0.5c0.1,0.2,0.2,0.6,0.2,1.2v1.5
	c0,0.4,0,0.8,0,1c0,0.2,0.1,0.4,0.2,0.7h-1.3c0-0.1-0.1-0.2-0.1-0.4c0-0.1,0-0.1,0-0.1c-0.2,0.2-0.5,0.4-0.7,0.5s-0.5,0.2-0.8,0.2
	c-0.5,0-0.9-0.1-1.2-0.4c-0.3-0.3-0.4-0.6-0.4-1c0-0.3,0.1-0.5,0.2-0.8s0.3-0.4,0.6-0.5s0.6-0.2,1-0.3c0.6-0.1,1-0.2,1.3-0.3v-0.1
	c0-0.2-0.1-0.4-0.2-0.5c-0.1-0.1-0.4-0.2-0.7-0.2c-0.2,0-0.4,0-0.5,0.1C68.1,21.4,68,21.5,67.9,21.8"/>
<path class="st0" d="M73.3,22.8c0,0.5,0.1,0.9,0.4,1.1s0.5,0.4,0.9,0.4s0.6-0.1,0.9-0.4s0.4-0.6,0.4-1.1s-0.1-0.9-0.4-1.1
	s-0.5-0.4-0.9-0.4s-0.6,0.1-0.9,0.4S73.3,22.3,73.3,22.8 M72,22.7c0-0.4,0.1-0.9,0.3-1.3c0.2-0.4,0.5-0.7,0.9-0.9
	c0.4-0.2,0.8-0.3,1.3-0.3c0.8,0,1.4,0.2,1.9,0.7s0.7,1.1,0.7,1.9s-0.2,1.4-0.7,1.9c-0.5,0.5-1.1,0.7-1.8,0.7c-0.5,0-0.9-0.1-1.3-0.3
	c-0.4-0.2-0.7-0.5-0.9-0.9C72.1,23.7,72,23.2,72,22.7"/>
<polygon class="st0" points="80.8,25.2 80.8,18.4 85.9,18.4 85.9,19.5 82.2,19.5 82.2,21.1 85.6,21.1 85.6,22.2 82.2,22.2 
	82.2,24.1 86,24.1 86,25.2 "/>
<path class="st0" d="M90.4,25.2v-0.7c-0.2,0.3-0.4,0.5-0.7,0.6c-0.3,0.1-0.6,0.2-0.9,0.2s-0.6-0.1-0.9-0.2c-0.3-0.1-0.5-0.4-0.6-0.6
	c-0.1-0.3-0.2-0.6-0.2-1.1v-3.1h1.3v2.3c0,0.7,0,1.1,0.1,1.3c0,0.2,0.1,0.3,0.3,0.4c0.1,0.1,0.3,0.1,0.5,0.1c0.2,0,0.4-0.1,0.6-0.2
	c0.2-0.1,0.3-0.3,0.4-0.5c0.1-0.2,0.1-0.6,0.1-1.3v-2.1h1.3v5H90.4L90.4,25.2z"/>
<path class="st0" d="M94.3,25.2H93v-5h1.2V21c0.2-0.3,0.4-0.5,0.6-0.7s0.4-0.2,0.6-0.2c0.3,0,0.6,0.1,0.9,0.2l-0.4,1.1
	c-0.2-0.1-0.4-0.2-0.6-0.2s-0.3,0-0.5,0.1s-0.2,0.3-0.3,0.5c-0.1,0.3-0.1,0.8-0.1,1.7L94.3,25.2L94.3,25.2z"/>
<path class="st0" d="M97.8,22.8c0,0.5,0.1,0.9,0.4,1.1s0.5,0.4,0.9,0.4s0.6-0.1,0.9-0.4c0.2-0.3,0.4-0.6,0.4-1.1s-0.1-0.9-0.4-1.1
	s-0.5-0.4-0.9-0.4s-0.6,0.1-0.9,0.4S97.8,22.3,97.8,22.8 M96.4,22.7c0-0.4,0.1-0.9,0.3-1.3c0.2-0.4,0.5-0.7,0.9-0.9
	c0.4-0.2,0.8-0.3,1.3-0.3c0.8,0,1.4,0.2,1.9,0.7s0.7,1.1,0.7,1.9s-0.2,1.4-0.7,1.9c-0.5,0.5-1.1,0.7-1.8,0.7c-0.5,0-0.9-0.1-1.3-0.3
	c-0.4-0.2-0.7-0.5-0.9-0.9C96.5,23.7,96.4,23.2,96.4,22.7"/>
<path class="st0" d="M103.9,22.7c0,0.6,0.1,1,0.3,1.2s0.5,0.4,0.8,0.4s0.6-0.1,0.8-0.4s0.3-0.6,0.3-1.2c0-0.5-0.1-0.9-0.3-1.2
	s-0.5-0.4-0.8-0.4s-0.6,0.1-0.8,0.4S103.8,22.2,103.9,22.7 M102.5,20.3h1.2V21c0.2-0.2,0.4-0.5,0.6-0.6c0.3-0.2,0.6-0.2,0.9-0.2
	c0.6,0,1.1,0.2,1.5,0.7s0.6,1.1,0.6,1.9s-0.2,1.5-0.6,1.9c-0.4,0.5-0.9,0.7-1.5,0.7c-0.3,0-0.5,0-0.7-0.2s-0.5-0.3-0.7-0.6v2.5h-1.3
	L102.5,20.3L102.5,20.3z"/>
<path class="st0" d="M111.4,22.3c0-0.4-0.1-0.7-0.3-0.9s-0.4-0.3-0.7-0.3c-0.3,0-0.5,0.1-0.7,0.3s-0.3,0.5-0.3,0.9L111.4,22.3
	L111.4,22.3z M111.3,23.7l1.3,0.2c-0.2,0.5-0.4,0.9-0.8,1.1c-0.4,0.2-0.8,0.4-1.4,0.4c-0.9,0-1.5-0.3-1.9-0.9
	c-0.3-0.5-0.5-1-0.5-1.7c0-0.8,0.2-1.5,0.6-1.9c0.4-0.5,1-0.7,1.6-0.7c0.7,0,1.3,0.2,1.8,0.7s0.6,1.2,0.6,2.2h-3.3
	c0,0.4,0.1,0.7,0.3,0.9s0.5,0.3,0.8,0.3c0.2,0,0.4-0.1,0.5-0.2C111.1,24.1,111.3,23.9,111.3,23.7"/>
<path class="st0" d="M113.8,20.3h1.3v5h-1.3V20.3z M113.8,18.4h1.3v1.2h-1.3V18.4z"/>
<path class="st0" d="M119.2,22.9c-0.2,0.1-0.4,0.1-0.8,0.2c-0.4,0.1-0.6,0.1-0.7,0.2c-0.2,0.1-0.3,0.3-0.3,0.5s0.1,0.3,0.2,0.5
	c0.1,0.1,0.3,0.2,0.5,0.2c0.2,0,0.5-0.1,0.7-0.2c0.2-0.1,0.3-0.3,0.3-0.4c0-0.1,0-0.3,0-0.6L119.2,22.9L119.2,22.9z M117.4,21.8
	l-1.2-0.2c0.1-0.5,0.4-0.8,0.7-1.1c0.3-0.2,0.8-0.4,1.5-0.4c0.6,0,1,0.1,1.3,0.2s0.5,0.3,0.6,0.5c0.1,0.2,0.2,0.6,0.2,1.2v1.5
	c0,0.4,0,0.8,0,1c0,0.2,0.1,0.4,0.2,0.7h-1.3c0-0.1-0.1-0.2-0.1-0.4c0-0.1,0-0.1,0-0.1c-0.2,0.2-0.5,0.4-0.7,0.5s-0.5,0.2-0.8,0.2
	c-0.5,0-0.9-0.1-1.2-0.4c-0.3-0.3-0.4-0.6-0.4-1c0-0.3,0.1-0.5,0.2-0.8s0.3-0.4,0.6-0.5s0.6-0.2,1-0.3c0.6-0.1,1-0.2,1.3-0.3v-0.1
	c0-0.2-0.1-0.4-0.2-0.5c-0.1-0.1-0.4-0.2-0.7-0.2c-0.2,0-0.4,0-0.5,0.1C117.6,21.4,117.5,21.5,117.4,21.8"/>
</svg>
