<?xml version="1.0" encoding="UTF-8"?>
<svg id="Layer_1" data-name="Layer 1" xmlns="http://www.w3.org/2000/svg" xmlns:xlink="http://www.w3.org/1999/xlink" viewBox="0 0 357.17 34.02">
  <defs>
    <style>
      .cls-1 {
        clip-path: url(#clippath);
      }

      .cls-2 {
        fill: none;
      }

      .cls-2, .cls-3, .cls-4, .cls-5, .cls-6, .cls-7, .cls-8, .cls-9, .cls-10, .cls-11, .cls-12, .cls-13, .cls-14, .cls-15, .cls-16, .cls-17, .cls-18, .cls-19, .cls-20, .cls-21, .cls-22, .cls-23, .cls-24, .cls-25, .cls-26, .cls-27 {
        stroke-width: 0px;
      }

      .cls-28 {
        clip-path: url(#clippath-1);
      }

      .cls-29 {
        clip-path: url(#clippath-4);
      }

      .cls-30 {
        clip-path: url(#clippath-3);
      }

      .cls-31 {
        clip-path: url(#clippath-2);
      }

      .cls-32 {
        clip-path: url(#clippath-7);
      }

      .cls-33 {
        clip-path: url(#clippath-8);
      }

      .cls-34 {
        clip-path: url(#clippath-6);
      }

      .cls-35 {
        clip-path: url(#clippath-5);
      }

      .cls-3 {
        fill: #f7bf00;
      }

      .cls-4 {
        fill: #face06;
      }

      .cls-5 {
        fill: #2b3183;
      }

      .cls-6 {
        fill: #4598ce;
      }

      .cls-7 {
        fill: #3aaa35;
      }

      .cls-8 {
        fill: #136330;
      }

      .cls-9 {
        fill: #086530;
      }

      .cls-10 {
        fill: #1d71b8;
      }

      .cls-11 {
        fill: #164194;
      }

      .cls-12 {
        fill: #e3161a;
      }

      .cls-13 {
        fill: #be1622;
      }

      .cls-14 {
        fill: #bd1c1b;
      }

      .cls-15 {
        fill: #9dc41a;
      }

      .cls-16 {
        fill: #a3195b;
      }

      .cls-17 {
        fill: #6ba230;
      }

      .cls-18 {
        fill: #e94e1b;
      }

      .cls-19 {
        fill: #e6007e;
      }

      .cls-20 {
        fill: #fcbf00;
      }

      .cls-21 {
        fill: #faea27;
      }

      .cls-22 {
        fill: #f6a000;
      }

      .cls-23 {
        fill: #ffdf00;
      }

      .cls-24 {
        fill: #009fe3;
      }

      .cls-25 {
        fill: #005492;
      }

      .cls-26 {
        fill: #008d39;
      }

      .cls-27 {
        fill: #063;
      }
    </style>
    <clipPath id="clippath">
      <rect class="cls-2" x="2.83" y=".92" width="351.5" height="32.19"/>
    </clipPath>
    <clipPath id="clippath-1">
      <rect class="cls-2" x="2.83" y=".92" width="351.5" height="32.19"/>
    </clipPath>
    <clipPath id="clippath-2">
      <rect class="cls-2" x="2.83" y=".92" width="351.5" height="32.19"/>
    </clipPath>
    <clipPath id="clippath-3">
      <rect class="cls-2" x="2.83" y=".92" width="351.5" height="32.19"/>
    </clipPath>
    <clipPath id="clippath-4">
      <rect class="cls-2" x="2.83" y=".92" width="351.5" height="32.19"/>
    </clipPath>
    <clipPath id="clippath-5">
      <rect class="cls-2" x="2.83" y=".92" width="351.5" height="32.19"/>
    </clipPath>
    <clipPath id="clippath-6">
      <rect class="cls-2" x="2.83" y=".92" width="351.5" height="32.19"/>
    </clipPath>
    <clipPath id="clippath-7">
      <rect class="cls-2" x="2.83" y=".92" width="351.5" height="32.19"/>
    </clipPath>
    <clipPath id="clippath-8">
      <rect class="cls-2" x="2.83" y=".92" width="351.5" height="32.19"/>
    </clipPath>
  </defs>
  <g class="cls-1">
    <path class="cls-15" d="m53.65,12.1c-.2-.21-.3-.46-.3-.75,0-.18.04-.33.11-.47.07-.13.16-.25.27-.35l2.37-2c.31-.26.56-.49.75-.7.19-.2.35-.39.46-.55.11-.16.18-.31.22-.45s.06-.28.06-.42c0-.27-.06-.48-.17-.64s-.24-.28-.4-.36c-.16-.08-.32-.13-.49-.15-.17-.02-.31-.03-.41-.03-.27,0-.54.04-.82.13-.28.08-.55.2-.82.35-.11.06-.21.09-.31.09-.17,0-.31-.08-.41-.25-.05-.08-.07-.16-.07-.26,0-.08.02-.16.06-.24.04-.07.1-.13.19-.18.71-.4,1.44-.6,2.17-.6.38,0,.72.05,1.03.16.31.1.58.25.8.44.22.19.39.41.52.68.12.26.18.56.18.88,0,.25-.03.48-.1.7-.06.22-.17.45-.32.68-.15.23-.33.47-.56.71-.23.24-.51.5-.84.78l-2.32,1.98s-.05.05-.05.09c0,.02.01.05.03.07.02.02.04.03.07.03h3.8c.15,0,.27.05.36.14.09.1.13.21.13.34s-.04.24-.13.34c-.08.1-.2.14-.36.14h-3.91c-.34,0-.61-.1-.81-.32"/>
    <path class="cls-15" d="m62.22,5.39c-.21.11-.38.25-.49.4-.12.16-.2.32-.25.49-.05.17-.08.31-.1.41-.02.25-.04.51-.06.8-.01.29-.02.58-.02.88s0,.59.02.88c.01.29.03.55.06.8.01.11.05.25.1.41.05.17.14.33.25.49.12.16.28.29.49.4.21.11.49.17.82.17s.61-.06.82-.17c.21-.11.38-.25.49-.4s.2-.32.25-.49c.05-.17.08-.31.1-.41.02-.25.04-.51.06-.8.01-.29.02-.58.02-.88s0-.59-.02-.88c-.02-.29-.03-.55-.06-.8-.02-.11-.05-.24-.1-.41-.05-.17-.13-.33-.25-.49-.12-.16-.28-.29-.49-.4-.21-.11-.49-.17-.82-.17s-.61.06-.82.17m-1.11,6.4c-.22-.21-.4-.45-.53-.73-.13-.28-.22-.58-.25-.92-.03-.26-.05-.54-.07-.84-.01-.3-.02-.61-.02-.93s0-.63.02-.93c.02-.3.04-.58.07-.84.04-.34.12-.64.25-.92.13-.28.31-.52.53-.73.51-.47,1.15-.7,1.93-.7s1.43.23,1.93.7c.22.21.4.45.53.73s.21.58.25.92c.03.26.05.54.07.84s.02.61.02.93,0,.63-.02.93-.04.58-.07.84c-.07.67-.33,1.22-.78,1.65-.51.47-1.15.7-1.93.7s-1.43-.23-1.93-.7"/>
    <path class="cls-15" d="m72.28,8.82c.24.33.36.73.36,1.23,0,.37-.07.7-.21,1.01-.14.3-.33.56-.58.78s-.55.38-.91.49c-.36.11-.75.17-1.19.17s-.87-.06-1.29-.19c-.42-.13-.78-.27-1.07-.42-.18-.08-.28-.22-.28-.41,0-.08.02-.17.07-.26.1-.17.25-.25.44-.25.1,0,.2.02.29.07.22.11.5.22.84.33.34.12.67.17,1,.17.17,0,.36-.02.57-.05.21-.03.41-.1.6-.21.19-.1.34-.25.47-.45.13-.19.19-.45.19-.78,0-.47-.16-.83-.48-1.09-.32-.26-.77-.39-1.35-.39h-.54c-.15,0-.26-.05-.35-.14-.09-.1-.13-.21-.13-.34s.04-.24.13-.34c.09-.1.21-.14.35-.14h.59c.11,0,.26-.01.43-.03.17-.02.34-.07.51-.16.17-.08.31-.2.42-.36.12-.16.17-.37.17-.64,0-.25-.05-.44-.14-.6-.09-.15-.21-.27-.36-.36-.15-.09-.31-.15-.49-.18-.18-.03-.36-.05-.53-.05-.26,0-.53.04-.8.13-.27.08-.54.2-.81.36-.12.05-.23.08-.31.08-.19,0-.33-.08-.43-.24-.05-.1-.07-.19-.07-.29s.02-.17.07-.24c.05-.07.11-.12.18-.16.71-.4,1.43-.6,2.16-.6.38,0,.72.05,1.03.14.32.09.58.23.81.4.25.2.43.43.56.7.13.27.19.57.19.91,0,.41-.1.76-.29,1.03-.19.28-.47.49-.83.64.44.16.78.41,1.02.73"/>
    <path class="cls-15" d="m76.02,5.39c-.21.11-.38.25-.49.4-.12.16-.2.32-.25.49-.05.17-.08.31-.1.41-.02.25-.04.51-.06.8-.02.29-.02.58-.02.88s0,.59.02.88c.01.29.03.55.06.8.01.11.05.25.1.41.05.17.13.33.25.49.12.16.28.29.49.4.21.11.49.17.82.17s.61-.06.82-.17c.21-.11.38-.25.5-.4.12-.16.2-.32.25-.49.05-.17.08-.31.1-.41.02-.25.04-.51.06-.8.01-.29.02-.58.02-.88s0-.59-.02-.88c-.01-.29-.03-.55-.06-.8-.02-.11-.05-.24-.1-.41-.05-.17-.14-.33-.25-.49-.12-.16-.28-.29-.5-.4-.21-.11-.49-.17-.82-.17s-.61.06-.82.17m-1.11,6.4c-.22-.21-.4-.45-.53-.73-.13-.28-.22-.58-.25-.92-.03-.26-.05-.54-.07-.84s-.02-.61-.02-.93,0-.63.02-.93.04-.58.07-.84c.04-.34.12-.64.25-.92s.31-.52.53-.73c.51-.47,1.15-.7,1.93-.7s1.43.23,1.93.7c.22.21.4.45.53.73.13.28.22.58.25.92.03.26.05.54.07.84.02.3.02.61.02.93s0,.63-.02.93c-.01.3-.04.58-.07.84-.07.67-.33,1.22-.78,1.65-.51.47-1.15.7-1.93.7s-1.43-.23-1.93-.7"/>
    <path class="cls-27" d="m44.01,2.98c-.29,0-.52.23-.52.51v12.44c0,.28.23.51.52.51s.52-.23.52-.51V3.48c0-.28-.23-.51-.52-.51"/>
    <path class="cls-24" d="m9.18,12.61c-.29,0-.52.23-.52.51v3.24c0,.28.23.51.52.51s.52-.23.52-.51v-3.24c0-.28-.23-.51-.52-.51"/>
    <path class="cls-10" d="m11.86,6.99c-.29,0-.52.23-.52.51v7.5c0,.28.23.51.52.51s.52-.23.52-.51v-7.5c0-.28-.23-.51-.52-.51"/>
    <path class="cls-17" d="m46.69,2.44c-.29,0-.52.23-.52.51v11.34c0,.28.23.51.52.51s.52-.23.52-.51V2.94c0-.28-.23-.51-.52-.51"/>
    <path class="cls-15" d="m49.37,3.39c-.29,0-.52.23-.52.51v10.06c0,.28.23.51.52.51s.52-.23.52-.51V3.9c0-.28-.23-.51-.52-.51"/>
    <path class="cls-6" d="m14.52,2.59c-.29,0-.52.23-.52.51v11.13c0,.28.23.51.52.51s.52-.23.52-.51V3.1c0-.28-.23-.51-.52-.51"/>
    <path class="cls-25" d="m17.22,4.07c-.29,0-.52.23-.52.51v8.88c0,.28.23.51.52.51s.52-.23.52-.51V4.58c0-.28-.23-.51-.52-.51"/>
    <path class="cls-13" d="m19.89,3.99c-.29,0-.52.23-.52.51v8.82c0,.28.23.51.52.51s.52-.23.52-.51V4.5c0-.28-.23-.51-.52-.51"/>
    <path class="cls-18" d="m22.57,4.89c-.29,0-.52.23-.52.51v8.95c0,.28.23.51.52.51s.52-.23.52-.51V5.39c0-.28-.23-.51-.52-.51"/>
    <path class="cls-16" d="m25.25,3.75c-.29,0-.52.23-.52.51v10.8c0,.28.23.51.52.51s.52-.23.52-.51V4.26c0-.28-.23-.51-.52-.51"/>
    <path class="cls-19" d="m27.92,4.74c-.29,0-.52.23-.52.51v9.8c0,.28.23.51.52.51s.52-.23.52-.51V5.25c0-.28-.23-.51-.52-.51"/>
    <path class="cls-3" d="m30.61,7.09c-.29,0-.52.23-.52.51v8.08c0,.28.23.51.52.51s.52-.23.52-.51V7.59c0-.28-.23-.51-.52-.51"/>
    <path class="cls-23" d="m33.29,7.78c-.29,0-.52.23-.52.51v9.14c0,.28.23.51.52.51s.52-.23.52-.51v-9.14c0-.28-.23-.51-.52-.51"/>
    <path class="cls-22" d="m38.65,4.36c-.29,0-.52.23-.52.51v14.21c0,.28.23.51.52.51s.52-.23.52-.51V4.87c0-.28-.23-.51-.52-.51"/>
    <path class="cls-7" d="m41.33,3.63c-.29,0-.52.23-.52.51v13.19c0,.28.23.51.52.51s.52-.23.52-.51V4.14c0-.28-.23-.51-.52-.51"/>
    <path class="cls-20" d="m35.97,5.41c-.29,0-.52.23-.52.51v13.87c0,.28.23.51.52.51s.52-.23.52-.51V5.92c0-.28-.23-.51-.52-.51"/>
    <path class="cls-25" d="m41.74,27.87h-2.7l1.38-2.41c.13-.24.17-.51.1-.77-.07-.26-.24-.48-.48-.62-.15-.09-.33-.14-.51-.14-.37,0-.71.2-.89.51l-3.2,5.58c-.28.49-.11,1.11.38,1.39.15.09.33.14.51.14.36,0,.7-.2.89-.51l.65-1.13h3.87c.56,0,1.02-.46,1.02-1.02s-.46-1.02-1.02-1.02"/>
    <path class="cls-25" d="m40.21,21.72l-.88,1.54c.07,0,.14-.01.2-.01.61,0,1.15.31,1.47.84v.02s.04.05.05.06l3.81,6.86c.18.32.52.52.89.52.17,0,.34-.04.49-.13.49-.27.67-.89.4-1.39l-4.62-8.31c-.18-.34-.52-.55-.9-.55s-.71.2-.89.52l-.02.04Z"/>
    <path class="cls-25" d="m63.82,28.62v-.02s-.04-.05-.04-.06l-3.81-6.86c-.18-.32-.52-.52-.89-.52-.17,0-.34.04-.49.13-.24.13-.41.35-.49.61-.08.26-.04.54.09.77l4.62,8.31c.18.34.52.55.9.55s.71-.2.89-.52l.02-.04.88-1.54c-.07,0-.14.01-.21.01-.61,0-1.16-.31-1.47-.84"/>
    <path class="cls-25" d="m66.17,28.25l3.2-5.58c.14-.24.17-.51.1-.77-.07-.26-.24-.48-.48-.62-.15-.09-.33-.14-.51-.14-.36,0-.7.2-.89.51l-3.2,5.58c-.13.24-.17.51-.1.77s.24.48.48.62c.24.14.51.17.77.1.26-.07.48-.24.62-.48"/>
    <path class="cls-25" d="m31.31,21.38c-.53-.18-1.08-.26-1.64-.26-2.88,0-5.22,2.34-5.22,5.22s2.34,5.22,5.22,5.22c1.49,0,2.91-.64,3.9-1.75.37-.42.34-1.07-.08-1.44-.42-.37-1.07-.34-1.44.08-.6.68-1.47,1.07-2.38,1.07-1.76,0-3.18-1.43-3.18-3.18s1.43-3.18,3.18-3.18c.34,0,.68.05,1,.16.26.09.53.07.78-.06.24-.12.43-.33.51-.59.18-.53-.11-1.11-.65-1.29"/>
    <path class="cls-25" d="m33.89,25.36h-3.29c-.56,0-1.02.46-1.02,1.02s.46,1.02,1.02,1.02h2.25c.71.02,1.33.47,1.58,1.13.31-.68.48-1.43.48-2.19-.02-.55-.47-.98-1.02-.98"/>
    <path class="cls-25" d="m16.82,21.16c-.56,0-1.02.46-1.02,1.02v5.62c0,.56.46,1.02,1.02,1.02s1.02-.46,1.02-1.02v-5.62c0-.56-.46-1.02-1.02-1.02"/>
    <path class="cls-25" d="m22.78,29.52h-5.95c-.38,0-.74-.12-1.03-.34v1.36c0,.56.46,1.02,1.02,1.02h5.97c.56,0,1.02-.46,1.02-1.02s-.46-1.02-1.02-1.02"/>
    <path class="cls-25" d="m49.3,23.88c-.56,0-1.02.46-1.02,1.02v5.59c0,.56.46,1.02,1.02,1.02s1.02-.46,1.02-1.02v-5.59c0-.56-.46-1.02-1.02-1.02"/>
    <path class="cls-25" d="m54.92,31.22c.19.23.48.36.77.36.24,0,.48-.09.66-.24.21-.18.33-.42.35-.69.02-.27-.06-.53-.24-.74l-2.1-2.46.21-.05c1.41-.35,2.4-1.62,2.4-3.07,0-1.75-1.42-3.17-3.16-3.17h-1.52s-.02,0-.02,0h-2.99c-.56,0-1.02.46-1.02,1.02v1.36c.29-.22.65-.34,1.03-.34h2.97s.02,0,.02,0h.02s1.49,0,1.49,0c.62,0,1.13.51,1.13,1.13s-.5,1.13-1.13,1.13h-1.61c-.4,0-.76.23-.92.59-.17.36-.11.79.15,1.09l3.49,4.1Z"/>
    <path class="cls-25" d="m9.25,27.87h-2.7l1.38-2.41c.13-.24.17-.51.1-.77-.07-.26-.24-.48-.48-.62-.15-.09-.33-.14-.51-.14-.37,0-.7.2-.89.51l-3.2,5.58c-.28.49-.11,1.11.38,1.39.15.09.33.14.51.14.36,0,.7-.2.88-.51l.65-1.13h3.87c.56,0,1.02-.46,1.02-1.02s-.46-1.02-1.02-1.02"/>
    <path class="cls-25" d="m9.54,21.71c-.18-.34-.52-.55-.9-.55s-.71.2-.89.52l-.02.04-.88,1.54c.07,0,.14-.01.2-.01.61,0,1.16.31,1.47.84v.02s.04.05.04.06l3.81,6.86c.18.32.52.52.89.52.17,0,.34-.05.49-.13.49-.27.67-.89.39-1.39l-4.62-8.31Z"/>
    <path class="cls-25" d="m78.63,21.17h-6.59c-.56,0-1.02.46-1.02,1.02v5.58c0,.56.46,1.02,1.02,1.02s1.02-.46,1.02-1.02v-4.57h5.57c.56,0,1.02-.46,1.02-1.02s-.46-1.02-1.02-1.02"/>
    <path class="cls-25" d="m78.6,29.49h-6.55c-.38,0-.74-.12-1.03-.34v1.36c0,.56.46,1.02,1.02,1.02h6.57c.56,0,1.02-.46,1.02-1.02s-.46-1.02-1.02-1.02"/>
    <path class="cls-25" d="m77.98,26.38c0-.56-.46-1.02-1.02-1.02h-2.16c-.56,0-1.02.46-1.02,1.02s.46,1.02,1.02,1.02h2.16c.56,0,1.02-.46,1.02-1.02"/>
    <path class="cls-5" d="m137.65,4.68h1.32c.77,0,1.17-.09,1.56-.38.33-.24.57-.79.57-1.31s-.23-1.08-.57-1.33c-.39-.29-.78-.38-1.56-.38h-1.32v3.39Zm1.32-3.64c.82,0,1.26.07,1.71.41.41.3.7.92.7,1.54s-.29,1.24-.7,1.54c-.45.33-.92.41-1.71.41h-1.32v2.97h-.28V1.04h1.6Z"/>
    <path class="cls-5" d="m141.91,4.48c0,1.89,1.46,3.29,3.28,3.29s3.28-1.4,3.28-3.3-1.46-3.3-3.28-3.3-3.28,1.4-3.28,3.3h0Zm-.28-.02c0-2.05,1.59-3.54,3.56-3.54s3.56,1.49,3.56,3.55-1.59,3.55-3.56,3.55-3.56-1.49-3.56-3.55h0Z"/>
    <path class="cls-5" d="m149.53,1.04h1.57c1.07,0,1.49.09,1.83.29.55.28.99,1.03.99,1.83.02.43-.11.96-.44,1.39-.5.66-1.07.74-1.85.77l1.84,2.59h-.35l-2.01-2.84h.2c.5,0,1.32,0,1.75-.43.44-.45.59-.93.59-1.47,0-.59-.29-1.25-.82-1.59-.42-.27-.92-.28-1.72-.28h-1.29v6.61h-.28V1.04Z"/>
  </g>
  <polygon class="cls-5" points="153.81 1.04 153.81 1.29 155.68 1.29 155.68 7.89 155.96 7.89 155.96 1.29 157.82 1.29 157.82 1.04 153.81 1.04"/>
  <g class="cls-28">
    <path class="cls-5" d="m158.62,1.04v4.45c0,.67,0,1.09.43,1.65.3.39.86.63,1.41.63s1.08-.24,1.38-.63c.43-.56.43-.98.43-1.65V1.04h.28v4.45c0,.62-.02,1.55-.82,2.11-.35.26-.81.42-1.28.42s-.92-.16-1.27-.42c-.81-.57-.83-1.49-.82-2.11V1.04h.28Z"/>
    <path class="cls-5" d="m169.74,2.56c-.28-.36-.6-.66-.96-.88-.53-.33-1.15-.51-1.82-.51-1.82,0-3.28,1.4-3.28,3.3s1.46,3.3,3.28,3.3c.87,0,1.64-.32,2.22-.78.58-.47.98-1.1,1.1-1.74h-4.09v-.25h4.42c-.04.35-.14.69-.3,1.01-.57,1.17-1.85,2.01-3.36,2.01-1.96,0-3.56-1.49-3.56-3.55s1.6-3.55,3.56-3.55c1.26,0,2.49.62,3.11,1.64h-.33Z"/>
  </g>
  <path class="cls-5" d="m173.59,1.3l1.68,3.96h-3.35l1.67-3.96Zm-.18-.26l-2.94,6.86h.3l1.03-2.39h3.59l1.03,2.39h.3l-2.94-6.86h-.36Z"/>
  <polygon class="cls-5" points="177.26 1.04 177.26 7.89 180.44 7.89 180.44 7.64 177.54 7.64 177.54 1.04 177.26 1.04"/>
  <g class="cls-31">
    <path class="cls-8" d="m136.68,30.57c2.28-2.19,4.52-4.41,6.77-6.61,1.89-1.78,3.89-3.5,4-6.02,0-2.69-1.83-4.39-4.22-4.39s-4.11,1.86-4.19,5h-2.19c.06-2,.61-3.69,1.78-4.94,1.36-1.64,3.39-2.08,4.83-2.08,3.8,0,6.33,2.78,6.27,6.3-.08,2.22-1.11,3.78-3.14,5.89-2.25,2.25-4.5,4.5-6.77,6.75h9.97v1.97h-13.1v-1.86Z"/>
    <path class="cls-8" d="m153.78,25.91c0,2.89,2.03,4.86,4.66,4.86,2.14,0,4.66-1.67,4.66-4.86v-7.49c0-2.03-1.22-4.86-4.72-4.86-2.69,0-4.61,2-4.61,4.97v7.38Zm-2.3-7.27c0-5.94,4.94-7.11,6.94-7.11,3.3,0,6.97,2.28,6.97,6.94v7.38c0,5.41-4.61,6.94-6.88,6.94-2.61,0-7.02-1.66-7.02-6.94v-7.22Z"/>
    <path class="cls-14" d="m168.02,16.75c.14-3.72,3.14-5.22,5.55-5.22,2.94,0,5.33,2,5.33,5.05,0,2.05-1.22,3.5-2.83,4.33,3.64,1.25,4.14,4.22,4.14,5.5,0,3.75-2.89,6.39-6.75,6.39-2.03,0-4.16-.86-5.41-2.5-.86-1.14-1.25-2.55-1.28-3.89h2.3c.11,2.75,2.22,4.36,4.47,4.36,2.72,0,4.36-2,4.36-4.41,0-2.19-1.78-4.39-4.83-4.39h-1.36v-1.78h1.03c2.94,0,3.89-2.14,3.89-3.36,0-1.86-1.22-3.28-3.08-3.28-2.14,0-3.16,1.61-3.28,3.19h-2.25Z"/>
    <path class="cls-14" d="m184.37,25.91c0,2.89,2.03,4.86,4.66,4.86,2.14,0,4.66-1.67,4.66-4.86v-7.49c0-2.03-1.22-4.86-4.72-4.86-2.69,0-4.61,2-4.61,4.97v7.38Zm-2.3-7.27c0-5.94,4.94-7.11,6.94-7.11,3.3,0,6.97,2.28,6.97,6.94v7.38c0,5.41-4.61,6.94-6.88,6.94-2.61,0-7.02-1.66-7.02-6.94v-7.22Z"/>
  </g>
  <polygon class="cls-5" points="113.29 30 122.86 33.1 126.6 25.02 113.29 30"/>
  <polygon class="cls-9" points="109.17 11.03 109.17 31.16 111.62 25.37 118.36 20.51 118.36 .96 109.17 11.03"/>
  <polygon class="cls-26" points="115.63 3.94 117.72 20.97 118.36 20.51 118.36 .96 115.63 3.94"/>
  <polygon class="cls-14" points="132.7 .92 121.11 3.26 121.11 21.95 113.29 27.43 126.61 22.48 132.7 16.49 132.7 .92"/>
  <polygon class="cls-12" points="131.32 1.19 132.7 5.97 132.7 .92 131.32 1.19"/>
  <polygon class="cls-4" points="122.86 33.1 126.61 31.95 126.6 25.02 122.86 33.1"/>
  <rect class="cls-11" x="224.97" y="3.28" width="41.8" height="27.87"/>
  <polygon class="cls-21" points="244.98 9.35 245.87 8.7 246.75 9.35 246.41 8.31 247.31 7.66 246.2 7.66 245.87 6.61 245.53 7.66 244.42 7.66 245.32 8.31 244.98 9.35"/>
  <polygon class="cls-21" points="240.42 10.57 241.3 9.93 242.18 10.57 241.85 9.53 242.74 8.89 241.64 8.89 241.3 7.83 240.96 8.89 239.86 8.89 240.75 9.53 240.42 10.57"/>
  <polygon class="cls-21" points="237.96 11.18 237.62 12.24 236.52 12.24 237.41 12.88 237.08 13.92 237.96 13.28 238.84 13.92 238.51 12.88 239.4 12.24 238.3 12.24 237.96 11.18"/>
  <polygon class="cls-21" points="236.74 17.84 237.62 18.48 237.28 17.44 238.18 16.79 237.07 16.79 236.74 15.74 236.4 16.8 235.29 16.79 236.19 17.44 235.85 18.48 236.74 17.84"/>
  <polygon class="cls-21" points="238.3 21.37 237.96 20.31 237.62 21.37 236.52 21.37 237.41 22.01 237.08 23.05 237.96 22.41 238.84 23.05 238.51 22.01 239.4 21.37 238.3 21.37"/>
  <polygon class="cls-21" points="241.64 24.71 241.31 23.66 240.97 24.71 239.87 24.71 240.76 25.36 240.43 26.4 241.31 25.75 242.19 26.4 241.85 25.36 242.75 24.71 241.64 24.71"/>
  <polygon class="cls-21" points="246.2 25.93 245.87 24.87 245.53 25.93 244.42 25.93 245.32 26.57 244.98 27.61 245.87 26.97 246.75 27.61 246.41 26.57 247.31 25.93 246.2 25.93"/>
  <polygon class="cls-21" points="250.76 24.71 250.42 23.66 250.09 24.71 248.98 24.71 249.88 25.36 249.54 26.4 250.42 25.75 251.31 26.4 250.97 25.36 251.87 24.71 250.76 24.71"/>
  <polygon class="cls-21" points="254.11 21.37 253.77 20.31 253.43 21.37 252.33 21.37 253.22 22.01 252.89 23.05 253.77 22.41 254.65 23.05 254.32 22.01 255.21 21.37 254.11 21.37"/>
  <polygon class="cls-21" points="256.42 16.78 255.32 16.78 254.98 15.73 254.64 16.78 253.54 16.78 254.44 17.42 254.1 18.47 254.98 17.82 255.86 18.47 255.53 17.42 256.42 16.78"/>
  <polygon class="cls-21" points="252.89 13.91 253.77 13.26 254.65 13.91 254.32 12.87 255.21 12.22 254.11 12.22 253.77 11.17 253.43 12.22 252.33 12.22 253.22 12.87 252.89 13.91"/>
  <polygon class="cls-21" points="250.44 7.83 250.1 8.89 249 8.89 249.89 9.53 249.56 10.57 250.44 9.93 251.32 10.57 250.98 9.53 251.88 8.89 250.77 8.89 250.44 7.83"/>
  <g class="cls-30">
    <path class="cls-11" d="m277.23,11.21l1.34.43c-.21.75-.55,1.3-1.03,1.67-.48.36-1.09.55-1.82.55-.91,0-1.66-.31-2.24-.93-.59-.62-.88-1.47-.88-2.55,0-1.14.3-2.03.88-2.66.59-.63,1.36-.95,2.33-.95.84,0,1.52.25,2.04.74.31.29.55.71.7,1.26l-1.37.33c-.08-.36-.25-.64-.51-.84-.26-.21-.57-.31-.94-.31-.51,0-.92.18-1.24.55-.32.36-.48.95-.48,1.77,0,.87.16,1.49.47,1.85.31.37.72.55,1.22.55.37,0,.68-.12.95-.35.26-.23.46-.6.57-1.1"/>
    <path class="cls-11" d="m280.79,11.25c0,.49.12.87.35,1.13.23.26.52.39.86.39s.63-.13.86-.39c.23-.26.35-.64.35-1.14s-.12-.86-.35-1.12c-.23-.26-.52-.39-.86-.39s-.63.13-.86.39c-.23.26-.35.64-.35,1.13m-1.35-.07c0-.44.11-.86.32-1.27.21-.41.52-.72.91-.93.39-.22.83-.32,1.32-.32.75,0,1.37.24,1.85.73.48.49.72,1.11.72,1.85s-.24,1.38-.73,1.87c-.48.49-1.09.74-1.83.74-.45,0-.89-.1-1.3-.31-.41-.21-.73-.51-.94-.91-.21-.4-.32-.88-.32-1.45"/>
    <path class="cls-11" d="m288.75,8.77h1.31v4.97h-1.31v-4.97Zm0-1.89h1.31v1.22h-1.31v-1.22Zm-3.69,1.89h.73v-.38c0-.42.04-.73.13-.93.09-.21.25-.37.49-.5.24-.13.54-.19.9-.19s.74.06,1.1.17l-.18.92c-.21-.05-.41-.07-.6-.07s-.33.05-.41.13c-.08.09-.12.26-.12.51v.35h.98v1.03h-.98v3.93h-1.31v-3.93h-.73v-1.03Z"/>
    <path class="cls-11" d="m295.97,13.74h-1.32v-2.53c0-.54-.03-.88-.08-1.04-.06-.16-.15-.28-.27-.37-.13-.09-.28-.13-.46-.13-.23,0-.43.06-.61.19-.18.12-.3.29-.37.5-.07.2-.1.59-.1,1.14v2.25h-1.31v-4.97h1.22v.73c.43-.56.98-.84,1.64-.84.29,0,.56.05.8.16.24.1.42.24.55.4.12.16.21.35.26.55.05.21.07.5.07.89v3.09Z"/>
    <path class="cls-11" d="m300.05,11.35c-.17.06-.43.12-.8.2-.37.08-.6.15-.72.23-.17.12-.26.28-.26.46s.07.34.21.48c.14.13.31.2.52.2.24,0,.46-.08.68-.23.16-.12.26-.26.31-.43.04-.11.05-.33.05-.64v-.26Zm-1.76-1.07l-1.19-.22c.13-.48.36-.84.69-1.07.33-.23.81-.35,1.46-.35.59,0,1.02.07,1.31.21.29.14.49.32.61.53.12.21.17.61.17,1.18v1.53c-.01.44,0,.76.05.97.04.21.12.43.24.67h-1.3c-.04-.09-.08-.22-.13-.39-.02-.08-.04-.13-.05-.15-.23.22-.46.38-.72.49-.26.11-.53.16-.82.16-.51,0-.91-.14-1.21-.42-.3-.28-.44-.63-.44-1.05,0-.28.07-.53.2-.75.13-.22.32-.39.56-.5.24-.12.59-.22,1.04-.31.61-.11,1.04-.22,1.28-.32v-.13c0-.25-.06-.43-.19-.54-.12-.11-.36-.16-.71-.16-.23,0-.42.05-.55.14-.13.09-.24.25-.32.48"/>
    <path class="cls-11" d="m307.15,13.74h-1.32v-2.53c0-.54-.03-.88-.08-1.04-.06-.16-.15-.28-.27-.37-.13-.09-.28-.13-.46-.13-.23,0-.43.06-.61.19-.18.12-.3.29-.37.5-.07.2-.1.59-.1,1.14v2.25h-1.32v-4.97h1.22v.73c.43-.56.98-.84,1.64-.84.29,0,.56.05.8.16.24.1.42.24.55.4.12.16.21.35.26.55.05.21.07.5.07.89v3.09Z"/>
    <path class="cls-11" d="m312.82,10.24l-1.3.23c-.04-.26-.14-.45-.3-.58-.15-.13-.35-.2-.6-.2-.33,0-.59.11-.78.34-.19.23-.29.6-.29,1.13,0,.59.1,1.01.3,1.25.2.24.46.37.8.37.25,0,.45-.07.61-.21.16-.14.27-.39.34-.73l1.29.22c-.13.59-.39,1.04-.77,1.34-.38.3-.89.45-1.53.45-.73,0-1.31-.23-1.74-.69-.43-.46-.65-1.09-.65-1.9s.22-1.46.65-1.92c.43-.46,1.02-.68,1.76-.68.61,0,1.09.13,1.44.39.36.26.61.66.77,1.19"/>
  </g>
  <path class="cls-11" d="m313.82,8.77h1.32v4.97h-1.32v-4.97Zm0-1.89h1.32v1.22h-1.32v-1.22Z"/>
  <g class="cls-29">
    <path class="cls-11" d="m319.22,11.35c-.17.06-.43.12-.8.2-.37.08-.6.15-.72.23-.17.12-.26.28-.26.46s.07.34.21.48c.14.13.31.2.52.2.24,0,.46-.08.68-.23.16-.12.26-.26.31-.43.04-.11.05-.33.05-.64v-.26Zm-1.76-1.07l-1.19-.22c.13-.48.36-.84.69-1.07.33-.23.81-.35,1.46-.35.59,0,1.02.07,1.31.21.29.14.49.32.6.53.12.21.18.61.18,1.18v1.53c-.01.44,0,.76.05.97.04.21.12.43.24.67h-1.3c-.04-.09-.08-.22-.13-.39-.02-.08-.04-.13-.05-.15-.23.22-.46.38-.72.49-.26.11-.53.16-.82.16-.51,0-.92-.14-1.21-.42-.3-.28-.44-.63-.44-1.05,0-.28.07-.53.2-.75.13-.22.32-.39.56-.5.24-.12.59-.22,1.04-.31.61-.11,1.04-.22,1.28-.32v-.13c0-.25-.06-.43-.19-.54-.12-.11-.36-.16-.71-.16-.23,0-.42.05-.55.14-.13.09-.24.25-.32.48"/>
    <path class="cls-11" d="m322.85,11.14c0,.53.07.91.22,1.15.21.34.51.51.89.51.3,0,.56-.13.77-.39.21-.26.32-.64.32-1.15,0-.57-.1-.98-.31-1.23-.21-.25-.47-.38-.79-.38s-.57.12-.78.37c-.21.25-.32.62-.32,1.11m3.51,2.59h-1.22v-.73c-.2.28-.44.5-.72.63-.28.14-.55.21-.83.21-.57,0-1.06-.23-1.47-.69-.41-.46-.61-1.1-.61-1.93s.2-1.48.6-1.92c.4-.44.9-.66,1.5-.66.55,0,1.04.23,1.44.69v-2.47h1.31v6.86Z"/>
    <path class="cls-11" d="m328.7,11.25c0,.49.12.87.35,1.13.24.26.52.39.86.39s.63-.13.86-.39c.23-.26.35-.64.35-1.14s-.12-.86-.35-1.12c-.23-.26-.52-.39-.86-.39s-.63.13-.86.39c-.23.26-.35.64-.35,1.13m-1.35-.07c0-.44.11-.86.32-1.27.21-.41.52-.72.92-.93.39-.22.83-.32,1.32-.32.75,0,1.37.24,1.85.73.48.49.72,1.11.72,1.85s-.24,1.38-.73,1.87c-.48.49-1.1.74-1.83.74-.45,0-.89-.1-1.3-.31-.41-.21-.73-.51-.94-.91-.21-.4-.32-.88-.32-1.45"/>
    <path class="cls-11" d="m337.43,11.17c0,.56.11.97.33,1.24.22.27.49.4.81.4s.56-.12.76-.37c.2-.25.3-.65.3-1.2,0-.52-.1-.91-.31-1.16-.21-.25-.47-.38-.78-.38s-.59.12-.8.37c-.21.25-.32.61-.32,1.1m-1.3-2.4h1.23v.73c.16-.25.37-.45.64-.61.27-.16.57-.23.9-.23.58,0,1.07.23,1.47.68.4.45.6,1.08.6,1.89s-.2,1.47-.61,1.93c-.4.46-.9.69-1.47.69-.28,0-.52-.06-.75-.16-.22-.11-.46-.3-.71-.56v2.5h-1.31v-6.86Z"/>
    <path class="cls-11" d="m344.98,10.83c-.01-.38-.11-.67-.3-.87-.19-.2-.41-.3-.68-.3-.29,0-.52.1-.71.31-.19.21-.28.49-.28.85h1.97Zm-.08,1.33l1.31.22c-.17.48-.43.85-.8,1.1-.36.25-.82.38-1.36.38-.86,0-1.5-.28-1.92-.85-.33-.45-.49-1.02-.49-1.71,0-.82.21-1.47.65-1.93.43-.47.97-.7,1.63-.7.74,0,1.32.24,1.75.73.43.49.63,1.24.61,2.24h-3.29c0,.39.11.69.32.91.2.22.46.33.76.33.21,0,.38-.06.52-.17.14-.11.25-.29.32-.54"/>
  </g>
  <rect class="cls-11" x="347.35" y="6.88" width="1.31" height="6.86"/>
  <g class="cls-35">
    <path class="cls-11" d="m352.75,11.35c-.17.06-.43.12-.8.2-.37.08-.6.15-.72.23-.17.12-.26.28-.26.46s.07.34.21.48c.14.13.31.2.52.2.24,0,.46-.08.68-.23.16-.12.26-.26.31-.43.03-.11.05-.33.05-.64v-.26Zm-1.76-1.07l-1.19-.22c.13-.48.36-.84.69-1.07.33-.23.81-.35,1.46-.35.59,0,1.02.07,1.31.21.29.14.49.32.61.53.12.21.17.61.17,1.18v1.53c-.01.44,0,.76.05.97.04.21.12.43.23.67h-1.3c-.04-.09-.08-.22-.13-.39-.02-.08-.04-.13-.05-.15-.22.22-.46.38-.72.49-.26.11-.53.16-.82.16-.51,0-.91-.14-1.21-.42-.3-.28-.44-.63-.44-1.05,0-.28.07-.53.2-.75.13-.22.32-.39.56-.5.24-.12.59-.22,1.05-.31.61-.11,1.04-.22,1.28-.32v-.13c0-.25-.06-.43-.19-.54-.12-.11-.36-.16-.71-.16-.23,0-.42.05-.55.14-.13.09-.24.25-.32.48"/>
    <path class="cls-11" d="m272.83,18.37h1.39v3.71c0,.59.02.97.05,1.15.06.28.2.51.42.68.22.17.53.26.91.26s.69-.08.89-.24c.2-.16.32-.36.36-.59.04-.23.06-.62.06-1.17v-3.79h1.38v3.6c0,.82-.04,1.4-.11,1.74-.07.34-.21.63-.41.86-.2.24-.47.42-.81.56-.34.14-.78.21-1.32.21-.65,0-1.15-.08-1.49-.23-.34-.15-.61-.35-.8-.59-.2-.24-.33-.49-.39-.76-.09-.39-.14-.97-.14-1.74v-3.66Z"/>
    <path class="cls-11" d="m284.27,25.23h-1.31v-2.54c0-.54-.03-.88-.08-1.04-.06-.16-.15-.28-.27-.37-.13-.09-.28-.13-.46-.13-.23,0-.43.06-.61.19-.18.12-.3.29-.37.5-.07.21-.1.59-.1,1.14v2.25h-1.31v-4.97h1.22v.73c.43-.56.98-.84,1.64-.84.29,0,.55.05.8.16.24.1.42.24.54.4.12.16.21.35.26.55.05.2.07.5.07.88v3.09Z"/>
  </g>
  <path class="cls-11" d="m285.6,20.26h1.31v4.97h-1.31v-4.97Zm0-1.89h1.31v1.22h-1.31v-1.22Z"/>
  <g class="cls-34">
    <path class="cls-11" d="m291.01,22.85c-.17.06-.43.12-.8.2-.37.08-.6.15-.72.23-.17.12-.26.28-.26.46s.07.34.21.48c.14.13.31.2.52.2.24,0,.46-.08.68-.23.16-.12.26-.26.31-.44.03-.11.05-.32.05-.64v-.26Zm-1.77-3.25h-.6c0-.07,0-.13,0-.17,0-.33.08-.58.24-.76.16-.18.36-.27.61-.27.11,0,.21.01.3.03.09.02.27.09.51.2.25.11.44.17.58.17.1,0,.18-.03.25-.09.07-.06.11-.17.13-.31h.61c0,.42-.08.72-.24.9-.15.18-.35.27-.6.27-.11,0-.21-.01-.31-.03-.07-.02-.25-.08-.54-.19-.29-.11-.5-.16-.63-.16-.1,0-.18.03-.23.09-.06.06-.09.17-.09.31m0,2.19l-1.19-.22c.13-.48.36-.84.69-1.07.33-.23.81-.35,1.46-.35.59,0,1.02.07,1.31.21.29.14.49.31.61.53.12.21.17.6.17,1.18v1.53c-.01.44,0,.76.05.97.04.21.12.43.24.67h-1.3c-.04-.09-.08-.22-.13-.39-.02-.08-.04-.13-.05-.15-.22.22-.46.38-.72.49-.26.11-.53.16-.82.16-.51,0-.92-.14-1.21-.42-.3-.28-.44-.63-.44-1.05,0-.28.07-.53.2-.75.13-.22.32-.39.56-.51.24-.12.59-.22,1.04-.31.62-.12,1.04-.22,1.28-.32v-.13c0-.25-.06-.43-.19-.54-.12-.11-.36-.16-.71-.16-.23,0-.42.05-.55.14-.13.09-.24.25-.32.48"/>
    <path class="cls-11" d="m294.64,22.75c0,.49.12.87.35,1.13s.52.39.86.39.63-.13.86-.39.35-.64.35-1.14-.12-.86-.35-1.12-.52-.39-.86-.39-.63.13-.86.39-.35.64-.35,1.13m-1.35-.07c0-.44.11-.86.32-1.27.21-.41.52-.72.91-.94.39-.22.83-.32,1.32-.32.75,0,1.37.24,1.85.73.48.49.72,1.1.72,1.85s-.24,1.38-.73,1.87c-.48.49-1.1.74-1.83.74-.46,0-.89-.1-1.3-.31-.41-.21-.73-.51-.94-.91-.22-.4-.32-.88-.32-1.45"/>
  </g>
  <polygon class="cls-11" points="302.12 25.23 302.12 18.37 307.2 18.37 307.2 19.53 303.5 19.53 303.5 21.05 306.94 21.05 306.94 22.21 303.5 22.21 303.5 24.08 307.33 24.08 307.33 25.23 302.12 25.23"/>
  <g class="cls-32">
    <path class="cls-11" d="m311.77,25.23v-.74c-.18.27-.42.47-.71.63-.29.15-.61.23-.93.23s-.63-.07-.9-.22c-.26-.15-.46-.35-.57-.62-.12-.27-.18-.63-.18-1.1v-3.14h1.32v2.28c0,.7.02,1.13.07,1.28.05.16.14.28.26.37.13.09.29.14.49.14.22,0,.43-.06.6-.18.18-.12.3-.28.37-.46.07-.18.1-.63.1-1.34v-2.1h1.31v4.97h-1.22Z"/>
    <path class="cls-11" d="m315.61,25.23h-1.31v-4.97h1.22v.71c.21-.33.4-.55.56-.66s.36-.16.57-.16c.3,0,.59.08.86.25l-.41,1.15c-.22-.14-.43-.22-.62-.22s-.34.05-.47.15c-.13.1-.23.28-.3.55-.07.26-.11.82-.11,1.66v1.53Z"/>
    <path class="cls-11" d="m319.12,22.75c0,.49.12.87.35,1.13s.52.39.86.39.63-.13.86-.39c.23-.26.35-.64.35-1.14s-.12-.86-.35-1.12c-.23-.26-.52-.39-.86-.39s-.63.13-.86.39-.35.64-.35,1.13m-1.35-.07c0-.44.11-.86.32-1.27.21-.41.52-.72.92-.94.39-.22.83-.32,1.32-.32.75,0,1.37.24,1.85.73.48.49.72,1.1.72,1.85s-.24,1.38-.73,1.87c-.48.49-1.1.74-1.83.74-.45,0-.89-.1-1.3-.31-.41-.21-.73-.51-.94-.91-.22-.4-.32-.88-.32-1.45"/>
    <path class="cls-11" d="m325.19,22.66c0,.56.11.97.33,1.24.22.27.49.4.81.4s.56-.12.76-.37.3-.65.3-1.2c0-.52-.1-.91-.31-1.16-.21-.25-.47-.38-.78-.38s-.59.12-.8.37c-.21.25-.32.61-.32,1.1m-1.3-2.4h1.23v.73c.16-.25.37-.45.65-.61.27-.16.57-.23.9-.23.58,0,1.07.23,1.47.68.4.45.6,1.08.6,1.89s-.2,1.47-.61,1.93c-.4.46-.9.69-1.47.69-.27,0-.52-.05-.74-.16-.22-.11-.46-.3-.71-.56v2.5h-1.31v-6.86Z"/>
    <path class="cls-11" d="m332.73,22.32c-.01-.38-.11-.67-.3-.87s-.42-.3-.68-.3c-.29,0-.52.1-.71.31-.19.21-.28.49-.28.85h1.97Zm-.08,1.33l1.31.22c-.17.48-.43.85-.8,1.1-.36.25-.82.38-1.36.38-.86,0-1.5-.28-1.92-.85-.33-.45-.49-1.02-.49-1.71,0-.82.22-1.47.65-1.94.43-.47.97-.7,1.63-.7.74,0,1.32.24,1.75.73.43.49.63,1.24.61,2.24h-3.29c.01.39.12.69.32.91.2.22.45.33.76.33.21,0,.38-.06.52-.17.14-.11.25-.29.32-.54"/>
  </g>
  <path class="cls-11" d="m335.11,20.26h1.32v4.97h-1.32v-4.97Zm0-1.89h1.32v1.22h-1.32v-1.22Z"/>
  <g class="cls-33">
    <path class="cls-11" d="m340.51,22.85c-.17.06-.43.12-.8.2-.36.08-.6.15-.72.23-.17.12-.26.28-.26.46s.07.34.21.48c.14.13.31.2.52.2.24,0,.46-.08.68-.23.16-.12.26-.26.31-.44.03-.11.05-.32.05-.64v-.26Zm-1.76-1.07l-1.19-.22c.13-.48.36-.84.69-1.07.33-.23.81-.35,1.46-.35.59,0,1.02.07,1.31.21.29.14.49.31.61.53.12.21.17.6.17,1.18v1.53c-.01.44,0,.76.05.97.04.21.12.43.23.67h-1.3c-.04-.09-.08-.22-.13-.39-.02-.08-.04-.13-.05-.15-.22.22-.46.38-.72.49-.26.11-.53.16-.82.16-.51,0-.92-.14-1.21-.42-.3-.28-.44-.63-.44-1.05,0-.28.07-.53.2-.75.13-.22.32-.39.56-.51.24-.12.59-.22,1.04-.31.61-.12,1.04-.22,1.28-.32v-.13c0-.25-.06-.43-.19-.54-.12-.11-.36-.16-.71-.16-.23,0-.42.05-.55.14-.13.09-.24.25-.32.48"/>
  </g>
</svg>