<?xml version="1.0" encoding="utf-8"?>
<!-- Generator: Adobe Illustrator 27.9.0, SVG Export Plug-In . SVG Version: 6.00 Build 0)  -->
<svg version="1.1" id="Layer_1" xmlns="http://www.w3.org/2000/svg" xmlns:xlink="http://www.w3.org/1999/xlink" x="0px" y="0px"
	 viewBox="0 0 94.5 34" style="enable-background:new 0 0 94.5 34;" xml:space="preserve">
<style type="text/css">
	.st0{fill:#2B3183;}
	.st1{fill:#136330;}
	.st2{fill:#BD1C1B;}
	.st3{fill:#086530;}
	.st4{fill:#008D39;}
	.st5{fill:#E3161A;}
	.st6{fill:#FACE06;}
</style>
<path class="st0" d="M32.8,4.7h1.3c0.8,0,1.2-0.1,1.6-0.4C36,4.1,36.3,3.5,36.3,3s-0.2-1.1-0.6-1.3c-0.4-0.3-0.8-0.4-1.6-0.4h-1.3
	V4.7L32.8,4.7z M34.2,1c0.8,0,1.3,0.1,1.7,0.4c0.4,0.3,0.7,0.9,0.7,1.5s-0.3,1.2-0.7,1.5c-0.4,0.3-0.9,0.4-1.7,0.4h-1.3v3h-0.3V1
	C32.6,1,34.2,1,34.2,1z"/>
<path class="st0" d="M37.1,4.5c0,1.9,1.5,3.3,3.3,3.3s3.3-1.4,3.3-3.3s-1.5-3.3-3.3-3.3S37.1,2.6,37.1,4.5L37.1,4.5L37.1,4.5z
	 M36.8,4.5c0-2,1.6-3.5,3.6-3.5s3.6,1.5,3.6,3.6S42.3,8,40.4,8S36.8,6.5,36.8,4.5L36.8,4.5L36.8,4.5z"/>
<path class="st0" d="M44.7,1h1.6c1.1,0,1.5,0.1,1.8,0.3c0.6,0.3,1,1,1,1.8c0,0.4-0.1,1-0.4,1.4c-0.5,0.7-1.1,0.7-1.9,0.8l1.8,2.6
	h-0.4l-2-2.8h0.2c0.5,0,1.3,0,1.8-0.4c0.4-0.4,0.6-0.9,0.6-1.5c0-0.6-0.3-1.2-0.8-1.6c-0.4-0.3-0.9-0.3-1.7-0.3H45v6.6h-0.3L44.7,1
	L44.7,1z"/>
<polygon class="st0" points="49,1 49,1.3 50.9,1.3 50.9,7.9 51.1,7.9 51.1,1.3 53,1.3 53,1 "/>
<path class="st0" d="M53.8,1v4.4c0,0.7,0,1.1,0.4,1.7c0.3,0.4,0.9,0.6,1.4,0.6s1.1-0.2,1.4-0.6c0.4-0.6,0.4-1,0.4-1.7V1h0.3v4.4
	c0,0.6,0,1.6-0.8,2.1C56.6,7.9,56.1,8,55.6,8s-0.9-0.2-1.3-0.4c-0.8-0.6-0.8-1.5-0.8-2.1V1H53.8L53.8,1z"/>
<path class="st0" d="M64.9,2.6c-0.3-0.4-0.6-0.7-1-0.9c-0.5-0.3-1.1-0.5-1.8-0.5c-1.8,0-3.3,1.4-3.3,3.3s1.5,3.3,3.3,3.3
	c0.9,0,1.6-0.3,2.2-0.8c0.6-0.5,1-1.1,1.1-1.7h-4.1V5h4.4c0,0.3-0.1,0.7-0.3,1c-0.6,1.2-1.9,2-3.4,2c-2,0-3.6-1.5-3.6-3.6
	s1.6-3.5,3.6-3.5c1.3,0,2.5,0.6,3.1,1.6L64.9,2.6L64.9,2.6z"/>
<path class="st0" d="M68.8,1.3l1.7,4h-3.4L68.8,1.3L68.8,1.3z M68.6,1l-2.9,6.9H66l1-2.4h3.6l1,2.4h0.3L69,1L68.6,1L68.6,1z"/>
<polygon class="st0" points="72.4,1 72.4,7.9 75.6,7.9 75.6,7.6 72.7,7.6 72.7,1 "/>
<path class="st1" d="M31.9,30.6c2.3-2.2,4.5-4.4,6.8-6.6c1.9-1.8,3.9-3.5,4-6c0-2.7-1.8-4.4-4.2-4.4s-4.1,1.9-4.2,5H32
	c0.1-2,0.6-3.7,1.8-4.9c1.4-1.6,3.4-2.1,4.8-2.1c3.8,0,6.3,2.8,6.3,6.3c-0.1,2.2-1.1,3.8-3.1,5.9c-2.2,2.2-4.5,4.5-6.8,6.8h10v2
	H31.9L31.9,30.6L31.9,30.6z"/>
<path class="st1" d="M49,25.9c0,2.9,2,4.9,4.7,4.9c2.1,0,4.7-1.7,4.7-4.9v-7.5c0-2-1.2-4.9-4.7-4.9c-2.7,0-4.6,2-4.6,5L49,25.9
	L49,25.9z M46.7,18.6c0-5.9,4.9-7.1,6.9-7.1c3.3,0,7,2.3,7,6.9v7.4c0,5.4-4.6,6.9-6.9,6.9c-2.6,0-7-1.7-7-6.9L46.7,18.6L46.7,18.6z"
	/>
<path class="st2" d="M63.2,16.8c0.1-3.7,3.1-5.2,5.6-5.2c2.9,0,5.3,2,5.3,5.1c0,2-1.2,3.5-2.8,4.3c3.6,1.2,4.1,4.2,4.1,5.5
	c0,3.8-2.9,6.4-6.8,6.4c-2,0-4.2-0.9-5.4-2.5c-0.9-1.1-1.2-2.5-1.3-3.9h2.3c0.1,2.8,2.2,4.4,4.5,4.4c2.7,0,4.4-2,4.4-4.4
	c0-2.2-1.8-4.4-4.8-4.4h-1.4v-1.8h1c2.9,0,3.9-2.1,3.9-3.4c0-1.9-1.2-3.3-3.1-3.3c-2.1,0-3.2,1.6-3.3,3.2L63.2,16.8L63.2,16.8z"/>
<path class="st2" d="M79.6,25.9c0,2.9,2,4.9,4.7,4.9c2.1,0,4.7-1.7,4.7-4.9v-7.5c0-2-1.2-4.9-4.7-4.9c-2.7,0-4.6,2-4.6,5L79.6,25.9
	L79.6,25.9z M77.3,18.6c0-5.9,4.9-7.1,6.9-7.1c3.3,0,7,2.3,7,6.9v7.4c0,5.4-4.6,6.9-6.9,6.9c-2.6,0-7-1.7-7-6.9L77.3,18.6L77.3,18.6
	z"/>
<polygon class="st0" points="8.5,30 18,33.1 21.8,25 "/>
<polygon class="st3" points="4.4,11 4.4,31.2 6.8,25.4 13.5,20.5 13.5,1 "/>
<polygon class="st4" points="10.8,3.9 12.9,21 13.5,20.5 13.5,1 "/>
<polygon class="st2" points="27.9,0.9 16.3,3.3 16.3,22 8.5,27.4 21.8,22.5 27.9,16.5 "/>
<polygon class="st5" points="26.5,1.2 27.9,6 27.9,0.9 "/>
<polygon class="st6" points="18,33.1 21.8,32 21.8,25 "/>
</svg>
