<?xml version="1.0" encoding="utf-8"?>
<!-- Generator: Adobe Illustrator 15.0.0, SVG Export Plug-In . SVG Version: 6.00 Build 0)  -->
<!DOCTYPE svg PUBLIC "-//W3C//DTD SVG 1.1//EN" "http://www.w3.org/Graphics/SVG/1.1/DTD/svg11.dtd">
<svg version="1.1" id="Layer_1" xmlns="http://www.w3.org/2000/svg" xmlns:xlink="http://www.w3.org/1999/xlink" x="0px" y="0px"
	 width="841.89px" height="595.28px" viewBox="0 0 841.89 595.28" enable-background="new 0 0 841.89 595.28" xml:space="preserve">
<path fill="#49C5DC" d="M612.142,238.766c-5.107-17.19-12.946-35.112-21.506-49.169c-27.946-45.89-72.172-78.17-124.532-90.894
	c-15.709-3.818-31.861-5.754-48.008-5.754c-19.465,0-38.645,2.795-57.006,8.309l-3.728,1.119l21.703,31.481l1.887-0.448
	c11.999-2.847,24.443-4.291,36.987-4.291c13.239,0,26.559,1.605,39.588,4.771c42.942,10.436,79.217,36.916,102.144,74.562
	c5.958,9.785,11.025,20.574,15.063,32.07l0.666,1.896l37.825-0.012L612.142,238.766z"/>
<path fill="#49C5DC" d="M609.511,239.552"/>
<rect x="421.515" y="253.75" fill="#49C5DC" width="43.613" height="9.849"/>
<rect x="421.515" y="273.788" fill="#E8DB34" width="43.613" height="9.85"/>
<rect x="421.515" y="294.401" fill="#5FBB46" width="43.613" height="9.849"/>
<path fill="#293D41" d="M564.675,271.983c0-13.37-11.957-18.221-19.996-18.221h-20v50.439h10.81V289.71v-7.387v-1.971V267.55v-3.94
	h9.144c0.026,0,2.71,0.058,5.167,1.257c1.745,0.853,4.065,2.517,4.065,7.116c0,4.597-2.321,6.263-4.065,7.115
	c-2.457,1.199-5.141,1.254-5.121,1.254h-4.327v8.865l10.963,15.021h14.594l-12.023-15.978
	C559.631,285.756,564.675,280.668,564.675,271.983z"/>
<path fill="#293D41" d="M504.163,253.663v32.292c0,4.216-2.107,8.721-10.259,8.687c-6.614-0.028-9.287-4.492-9.287-8.708v-32.292
	h-10.813v33.723c0,12.765,11.142,17.457,20.498,17.527v0.027c9.354,0,20.674-4.671,20.674-17.531v-33.724H504.163z"/>
<g>
	<path fill="#293D41" d="M348.465,304.553c-14.17,0-25.699-11.53-25.699-25.703c0-14.168,11.529-25.7,25.699-25.7
		c14.166,0,25.695,11.531,25.695,25.7C374.161,293.022,362.631,304.553,348.465,304.553z M348.465,263.329
		c-8.01,0-14.526,6.962-14.526,15.521c0,8.561,6.516,15.524,14.526,15.524c8.008,0,14.523-6.963,14.523-15.524
		C362.988,270.291,356.473,263.329,348.465,263.329z"/>
</g>
<path fill="#293D41" d="M416.254,288.649c-0.192-4.586-2.342-7.922-5.33-10.229c-2.868-2.399-7.016-4.126-12.729-4.281
	c-0.281-0.008-0.557-0.017-0.827-0.017c-0.024,0-2.38-0.053-4.579-0.885c-0.716-0.271-1.279-0.575-1.721-0.901
	c-1.182-1.05-1.523-2.362-1.579-3.359c0.11-1.964,1.307-5.147,7.879-5.147h11.412v-10.045h-11.412
	c-13.87,0-18.908,9.086-18.908,15.193c0,0.217,0.006,0.438,0.023,0.665c0.188,4.587,2.34,7.922,5.328,10.226
	c2.871,2.401,7.019,4.129,12.729,4.285c0.28,0.009,0.557,0.014,0.828,0.014c0.021,0,2.384,0.053,4.576,0.886
	c0.718,0.271,1.284,0.576,1.727,0.901c1.181,1.049,1.521,2.363,1.577,3.362c-0.11,1.963-1.307,5.148-7.88,5.148
	c-6.672,0-7.803-3.28-7.882-5.236v0.088H378.46c0,6.104,5.038,15.19,18.908,15.19c13.872,0,18.907-9.086,18.907-15.19
	C416.275,289.095,416.267,288.875,416.254,288.649z"/>
<path fill="#293D41" d="M318.958,272.112c0-13.538-12.115-18.455-20.26-18.455h-20.255v50.543h10.951v-14.134v-7.48v-1.996v-12.967
	v-3.991h9.26c0.026,0,2.744,0.058,5.231,1.272c1.77,0.863,4.122,2.549,4.122,7.207c0,4.66-2.352,6.346-4.122,7.208
	c-2.487,1.213-5.205,1.271-5.187,1.271h-4.378v8.98c0,0,6.932,1.055,13.365-1.129C313.726,286.395,318.958,280.91,318.958,272.112z"
	/>
<g>
	<path fill="#293D41" d="M278.024,322.206h-0.627v-6.827h2.458c0.513,0,0.954,0.184,1.321,0.552
		c0.365,0.364,0.547,0.807,0.547,1.326c0,0.514-0.182,0.954-0.547,1.321c-0.368,0.365-0.808,0.547-1.321,0.547h-1.831V322.206z
		 M278.024,318.498h1.831c0.342,0,0.635-0.122,0.879-0.366c0.241-0.241,0.361-0.533,0.361-0.875c0-0.346-0.121-0.641-0.361-0.885
		c-0.244-0.244-0.537-0.366-0.879-0.366h-1.831V318.498z"/>
	<path fill="#293D41" d="M287.432,322.206h-0.728l-1.657-3.19h-1.691v3.186h-0.649v-7.054h2.537c0.534,0,0.99,0.19,1.366,0.57
		c0.377,0.377,0.565,0.832,0.565,1.366c0,0.442-0.136,0.839-0.408,1.189c-0.266,0.341-0.606,0.567-1.022,0.679L287.432,322.206z
		 M285.244,318.367c0.354,0,0.657-0.125,0.909-0.374c0.249-0.252,0.374-0.556,0.374-0.909s-0.125-0.657-0.374-0.909
		c-0.252-0.252-0.555-0.379-0.909-0.379h-1.888v2.571H285.244z"/>
	<path fill="#293D41" d="M289.004,321.223c-0.705-0.701-1.057-1.548-1.057-2.541s0.352-1.842,1.057-2.546
		c0.701-0.701,1.548-1.053,2.542-1.053c0.993,0,1.841,0.352,2.546,1.053c0.701,0.704,1.052,1.553,1.052,2.546
		s-0.351,1.84-1.052,2.541c-0.705,0.705-1.553,1.058-2.546,1.058C290.553,322.28,289.706,321.928,289.004,321.223z M289.461,316.598
		c-0.577,0.576-0.865,1.271-0.865,2.084s0.289,1.508,0.865,2.084c0.577,0.577,1.271,0.865,2.084,0.865
		c0.813,0,1.507-0.288,2.084-0.865c0.577-0.576,0.865-1.271,0.865-2.084s-0.289-1.508-0.865-2.084
		c-0.577-0.577-1.271-0.865-2.084-0.865C290.733,315.732,290.038,316.021,289.461,316.598z"/>
	<path fill="#293D41" d="M296.819,321.218c-0.705-0.701-1.057-1.548-1.057-2.541c0-0.989,0.353-1.837,1.057-2.541
		c0.701-0.701,1.548-1.053,2.541-1.053c0.488,0,0.956,0.094,1.401,0.28l-0.255,0.6c-0.364-0.153-0.746-0.23-1.146-0.23
		c-0.813,0-1.507,0.287-2.084,0.86c-0.577,0.576-0.865,1.271-0.865,2.084s0.289,1.508,0.865,2.084
		c0.577,0.577,1.271,0.865,2.084,0.865c0.328,0,0.646-0.053,0.954-0.157v-2.487h-1.47v-0.648h2.119v3.573l-0.197,0.084
		c-0.449,0.189-0.917,0.284-1.406,0.284C298.368,322.274,297.521,321.923,296.819,321.218z"/>
	<path fill="#293D41" d="M306.68,322.206h-0.728l-1.657-3.19h-1.691v3.186h-0.649v-7.054h2.537c0.534,0,0.99,0.19,1.366,0.57
		c0.377,0.377,0.565,0.832,0.565,1.366c0,0.442-0.136,0.839-0.408,1.189c-0.266,0.341-0.606,0.567-1.022,0.679L306.68,322.206z
		 M304.492,318.367c0.354,0,0.657-0.125,0.909-0.374c0.249-0.252,0.374-0.556,0.374-0.909s-0.125-0.657-0.374-0.909
		c-0.252-0.252-0.555-0.379-0.909-0.379h-1.888v2.571H304.492z"/>
	<path fill="#293D41" d="M312.44,315.147v7.059h-0.644v-1.765h-2.802l-1.116,1.765h-0.767l4.463-7.059H312.44z M309.403,319.793
		h2.394v-3.78L309.403,319.793z"/>
	<path fill="#293D41" d="M320.457,315.147v7.054h-0.644v-5.485l-2.374,5.49h-0.708l-2.369-5.49v5.485h-0.649v-7.054h0.678
		l2.694,6.242l2.699-6.242H320.457z"/>
	<path fill="#293D41" d="M326.611,315.147v7.059h-0.644v-1.765h-2.802l-1.116,1.765h-0.767l4.463-7.059H326.611z M323.573,319.793
		h2.394v-3.78L323.573,319.793z"/>
	<path fill="#293D41" d="M331.275,321.223c-0.705-0.701-1.057-1.548-1.057-2.541s0.352-1.842,1.057-2.546
		c0.701-0.701,1.548-1.053,2.542-1.053c0.993,0,1.841,0.352,2.546,1.053c0.701,0.704,1.052,1.553,1.052,2.546
		s-0.351,1.84-1.052,2.541c-0.705,0.705-1.553,1.058-2.546,1.058C332.824,322.28,331.977,321.928,331.275,321.223z M331.732,316.598
		c-0.577,0.576-0.865,1.271-0.865,2.084s0.289,1.508,0.865,2.084c0.577,0.577,1.271,0.865,2.084,0.865
		c0.813,0,1.507-0.288,2.084-0.865c0.577-0.576,0.865-1.271,0.865-2.084s-0.289-1.508-0.865-2.084
		c-0.577-0.577-1.271-0.865-2.084-0.865C333.004,315.732,332.309,316.021,331.732,316.598z"/>
	<path fill="#293D41" d="M339.051,322.206h-0.649v-7.059h2.542c0.531,0,0.986,0.19,1.367,0.57c0.376,0.377,0.565,0.834,0.565,1.371
		c0,0.531-0.188,0.986-0.565,1.366c-0.38,0.377-0.836,0.565-1.367,0.565h-1.893V322.206z M339.051,318.372h1.893
		c0.354,0,0.657-0.126,0.909-0.379c0.249-0.249,0.374-0.55,0.374-0.904c0-0.357-0.125-0.662-0.374-0.914
		c-0.252-0.252-0.555-0.379-0.909-0.379h-1.893V318.372z"/>
	<path fill="#293D41" d="M347.466,315.147v0.648h-2.954v2.547h2.335v0.648h-2.335v2.566h2.954v0.648h-3.603v-7.059H347.466z"/>
	<path fill="#293D41" d="M353.178,322.206h-0.728l-1.657-3.19h-1.691v3.186h-0.649v-7.054h2.537c0.534,0,0.99,0.19,1.366,0.57
		c0.377,0.377,0.565,0.832,0.565,1.366c0,0.442-0.136,0.839-0.408,1.189c-0.266,0.341-0.606,0.567-1.022,0.679L353.178,322.206z
		 M350.99,318.367c0.354,0,0.657-0.125,0.909-0.374c0.249-0.252,0.374-0.556,0.374-0.909s-0.125-0.657-0.374-0.909
		c-0.252-0.252-0.555-0.379-0.909-0.379h-1.888v2.571H350.99z"/>
	<path fill="#293D41" d="M358.938,315.147v7.059h-0.644v-1.765h-2.802l-1.116,1.765h-0.767l4.463-7.059H358.938z M355.9,319.793
		h2.394v-3.78L355.9,319.793z"/>
	<path fill="#293D41" d="M363.5,321.626c0.58,0,1.114-0.159,1.603-0.477v0.747c-0.505,0.252-1.039,0.378-1.603,0.378
		c-0.993,0-1.84-0.352-2.542-1.057c-0.705-0.701-1.057-1.548-1.057-2.541s0.352-1.84,1.057-2.541
		c0.701-0.705,1.548-1.058,2.542-1.058c0.563,0,1.098,0.127,1.603,0.379v0.747c-0.488-0.317-1.022-0.477-1.603-0.477
		c-0.813,0-1.507,0.288-2.084,0.865c-0.577,0.576-0.865,1.271-0.865,2.084s0.288,1.508,0.865,2.084
		C361.992,321.338,362.687,321.626,363.5,321.626z"/>
	<path fill="#293D41" d="M365.824,315.113h0.654v7.093h-0.654V315.113z"/>
	<path fill="#293D41" d="M368.276,321.223c-0.705-0.701-1.057-1.548-1.057-2.541s0.352-1.842,1.057-2.546
		c0.701-0.701,1.548-1.053,2.542-1.053c0.993,0,1.841,0.352,2.546,1.053c0.701,0.704,1.052,1.553,1.052,2.546
		s-0.351,1.84-1.052,2.541c-0.705,0.705-1.553,1.058-2.546,1.058C369.825,322.28,368.978,321.928,368.276,321.223z M368.733,316.598
		c-0.577,0.576-0.865,1.271-0.865,2.084s0.289,1.508,0.865,2.084c0.577,0.577,1.271,0.865,2.084,0.865
		c0.813,0,1.507-0.288,2.084-0.865c0.577-0.576,0.865-1.271,0.865-2.084s-0.289-1.508-0.865-2.084
		c-0.577-0.577-1.271-0.865-2.084-0.865C370.005,315.732,369.31,316.021,368.733,316.598z"/>
	<path fill="#293D41" d="M380.255,315.147v7.059h-0.698l-3.52-5.884v5.884h-0.649v-7.059h0.703l3.515,5.884v-5.884H380.255z"/>
	<path fill="#293D41" d="M386.443,315.147v7.059h-0.644v-1.765h-2.802l-1.116,1.765h-0.767l4.463-7.059H386.443z M383.406,319.793
		h2.394v-3.78L383.406,319.793z"/>
	<path fill="#293D41" d="M388.365,315.147v6.41h3.279v0.648h-3.928v-7.059H388.365z"/>
	<path fill="#293D41" d="M279.417,334.416c-0.465-0.02-0.895-0.144-1.288-0.373c-0.446-0.259-0.749-0.606-0.909-1.042l1.002-0.369
		c0.082,0.217,0.251,0.392,0.506,0.526c0.226,0.114,0.472,0.179,0.737,0.191c0.41,0.017,0.749-0.083,1.018-0.3
		c0.226-0.184,0.346-0.394,0.359-0.629c0.02-0.449-0.451-0.808-1.411-1.077c-1.504-0.422-2.233-1.139-2.188-2.147
		c0.029-0.708,0.333-1.237,0.909-1.588c0.439-0.269,0.967-0.389,1.583-0.358c0.747,0.032,1.347,0.293,1.799,0.781l-0.781,0.728
		c-0.256-0.275-0.611-0.423-1.067-0.442c-0.321-0.014-0.595,0.027-0.821,0.123c-0.354,0.15-0.539,0.419-0.555,0.806
		c-0.02,0.442,0.45,0.798,1.411,1.066c0.865,0.243,1.478,0.601,1.838,1.072c0.249,0.327,0.365,0.689,0.349,1.086
		c-0.026,0.558-0.279,1.029-0.757,1.416c-0.446,0.357-0.98,0.535-1.603,0.535C279.504,334.421,279.46,334.42,279.417,334.416z"/>
	<path fill="#293D41" d="M283.949,333.684c-0.488-0.488-0.732-1.078-0.732-1.77v-4.601h1.071v4.601c0,0.396,0.14,0.734,0.418,1.013
		c0.282,0.282,0.62,0.423,1.013,0.423c0.396,0,0.734-0.141,1.013-0.423c0.282-0.278,0.422-0.616,0.422-1.013v-4.601h1.072v4.601
		c0,0.691-0.246,1.281-0.737,1.77c-0.488,0.488-1.078,0.732-1.77,0.732C285.031,334.416,284.44,334.172,283.949,333.684z"/>
	<path fill="#293D41" d="M291.705,334.416c-0.465-0.02-0.895-0.144-1.288-0.373c-0.446-0.259-0.749-0.606-0.909-1.042l1.002-0.369
		c0.082,0.217,0.251,0.392,0.506,0.526c0.226,0.114,0.472,0.179,0.737,0.191c0.41,0.017,0.749-0.083,1.018-0.3
		c0.226-0.184,0.346-0.394,0.359-0.629c0.02-0.449-0.451-0.808-1.411-1.077c-1.504-0.422-2.233-1.139-2.188-2.147
		c0.029-0.708,0.333-1.237,0.909-1.588c0.439-0.269,0.967-0.389,1.583-0.358c0.747,0.032,1.347,0.293,1.799,0.781l-0.781,0.728
		c-0.256-0.275-0.611-0.423-1.067-0.442c-0.321-0.014-0.595,0.027-0.821,0.123c-0.354,0.15-0.539,0.419-0.555,0.806
		c-0.02,0.442,0.45,0.798,1.411,1.066c0.865,0.243,1.478,0.601,1.838,1.072c0.249,0.327,0.365,0.689,0.349,1.086
		c-0.026,0.558-0.279,1.029-0.757,1.416c-0.446,0.357-0.98,0.535-1.603,0.535C291.792,334.421,291.748,334.42,291.705,334.416z"/>
	<path fill="#293D41" d="M299.255,327.318v1.066h-1.489v5.968h-1.072v-5.968h-1.489v-1.066H299.255z"/>
	<path fill="#293D41" d="M304.205,327.318v1.066h-2.521v1.907h1.946v1.067h-1.946v1.927h2.521v1.066h-3.588v-7.034H304.205z"/>
	<path fill="#293D41" d="M310.584,327.318v7.034h-1.116l-3.008-5.028v5.028h-1.067v-7.034h1.116l3.003,5.028v-5.028H310.584z"/>
	<path fill="#293D41" d="M315.903,327.318v1.066h-1.489v5.968h-1.072v-5.968h-1.489v-1.066H315.903z"/>
	<path fill="#293D41" d="M321.57,327.318v7.034h-1.072v-1.642h-2.389l-1.038,1.642h-1.263l4.449-7.034H321.57z M318.783,331.645
		h1.715v-2.709L318.783,331.645z"/>
	<path fill="#293D41" d="M323.187,334.353v-7.034h2.207c0.557,0,1.032,0.196,1.426,0.59c0.393,0.396,0.59,0.872,0.59,1.426
		c0,0.495-0.159,0.929-0.477,1.303c0.272,0.187,0.485,0.426,0.639,0.718c0.164,0.298,0.246,0.617,0.246,0.958
		c0,0.563-0.2,1.044-0.6,1.44c-0.396,0.399-0.875,0.6-1.435,0.6H323.187z M324.254,330.282h1.14c0.262,0,0.485-0.093,0.668-0.28
		c0.187-0.184,0.28-0.406,0.28-0.668c0-0.263-0.093-0.485-0.28-0.669c-0.183-0.187-0.406-0.28-0.668-0.28h-1.14V330.282z
		 M324.254,333.286h1.529c0.265,0,0.493-0.096,0.683-0.285c0.187-0.19,0.28-0.42,0.28-0.688c0-0.266-0.093-0.491-0.28-0.679
		c-0.19-0.189-0.418-0.284-0.683-0.284h-1.529V333.286z"/>
	<path fill="#293D41" d="M330.147,334.353h-1.067v-7.024h1.067V334.353z"/>
	<path fill="#293D41" d="M332.782,327.318v5.968h2.521v1.066h-3.588v-7.034H332.782z"/>
	<path fill="#293D41" d="M337.638,334.353h-1.067v-7.024h1.067V334.353z"/>
	<path fill="#293D41" d="M339.186,334.353v-7.034h1.848c0.97,0,1.799,0.344,2.487,1.032c0.685,0.688,1.027,1.518,1.027,2.487
		c0,0.967-0.342,1.794-1.027,2.482c-0.688,0.688-1.517,1.032-2.487,1.032H339.186z M340.248,333.291h0.787
		c0.675,0,1.253-0.241,1.735-0.723c0.478-0.479,0.717-1.056,0.717-1.73c0-0.679-0.239-1.257-0.717-1.735
		c-0.482-0.481-1.061-0.723-1.735-0.723h-0.787V333.291z"/>
	<path fill="#293D41" d="M350.143,327.318v7.034h-1.072v-1.642h-2.389l-1.038,1.642h-1.263l4.449-7.034H350.143z M347.355,331.645
		h1.715v-2.709L347.355,331.645z"/>
	<path fill="#293D41" d="M351.725,334.353v-7.034h1.848c0.97,0,1.799,0.344,2.487,1.032c0.685,0.688,1.027,1.518,1.027,2.487
		c0,0.967-0.342,1.794-1.027,2.482c-0.688,0.688-1.517,1.032-2.487,1.032H351.725z M352.787,333.291h0.787
		c0.675,0,1.253-0.241,1.735-0.723c0.478-0.479,0.717-1.056,0.717-1.73c0-0.679-0.239-1.257-0.717-1.735
		c-0.482-0.481-1.061-0.723-1.735-0.723h-0.787V333.291z"/>
	<path fill="#293D41" d="M361.968,327.318v1.066h-2.521v1.907h1.946v1.067h-1.946v1.927h2.521v1.066h-3.588v-7.034H361.968z"/>
	<path fill="#293D41" d="M369.715,327.318v1.066h-2.521v1.907h1.946v1.067h-1.946v1.927h2.521v1.066h-3.588v-7.034H369.715z"/>
	<path fill="#293D41" d="M377.461,327.318v1.066h-2.521v1.907h1.946v1.067h-1.946v1.927h2.521v1.066h-3.588v-7.034H377.461z"/>
	<path fill="#293D41" d="M382.308,327.318v1.066h-2.521v1.907h1.946v1.067h-1.946v2.993h-1.067v-7.034H382.308z"/>
	<path fill="#293D41" d="M384.642,334.353h-1.067v-7.024h1.067V334.353z"/>
	<path fill="#293D41" d="M389.489,333.35c0.426,0,0.824-0.1,1.194-0.3v1.165c-0.387,0.138-0.785,0.206-1.194,0.206
		c-0.99,0-1.835-0.351-2.537-1.052s-1.052-1.547-1.052-2.536s0.351-1.835,1.052-2.536s1.547-1.052,2.537-1.052
		c0.41,0,0.808,0.066,1.194,0.201v1.17c-0.37-0.203-0.769-0.305-1.194-0.305c-0.695,0-1.288,0.247-1.78,0.742
		c-0.491,0.491-0.737,1.085-0.737,1.779s0.246,1.288,0.737,1.779C388.201,333.104,388.794,333.35,389.489,333.35z"/>
	<path fill="#293D41" d="M393.047,334.353h-1.067v-7.024h1.067V334.353z"/>
	<path fill="#293D41" d="M398.204,327.318v1.066h-2.521v1.907h1.946v1.067h-1.946v1.927h2.521v1.066h-3.588v-7.034H398.204z
		 M397.294,325.897l0.536,1.032h-1.205l-0.216-0.423l-0.216,0.423h-1.205l0.531-1.032H397.294z"/>
	<path fill="#293D41" d="M404.583,327.318v7.034h-1.116l-3.008-5.028v5.028h-1.067v-7.034h1.116l3.003,5.028v-5.028H404.583z"/>
	<path fill="#293D41" d="M409.376,333.35c0.426,0,0.824-0.1,1.194-0.3v1.165c-0.387,0.138-0.785,0.206-1.194,0.206
		c-0.99,0-1.835-0.351-2.537-1.052s-1.052-1.547-1.052-2.536s0.351-1.835,1.052-2.536s1.547-1.052,2.537-1.052
		c0.41,0,0.808,0.066,1.194,0.201v1.17c-0.37-0.203-0.769-0.305-1.194-0.305c-0.695,0-1.288,0.247-1.78,0.742
		c-0.491,0.491-0.737,1.085-0.737,1.779s0.246,1.288,0.737,1.779C408.088,333.104,408.681,333.35,409.376,333.35z"/>
	<path fill="#293D41" d="M412.935,334.353h-1.067v-7.024h1.067V334.353z"/>
	<path fill="#293D41" d="M419.683,327.318v7.034h-1.072v-1.642h-2.389l-1.038,1.642h-1.263l4.449-7.034H419.683z M416.896,331.645
		h1.715v-2.709L416.896,331.645z"/>
	<path fill="#293D41" d="M429.307,327.318v7.034h-1.116l-3.008-5.028v5.028h-1.067v-7.034h1.116l3.003,5.028v-5.028H429.307z"/>
	<path fill="#293D41" d="M431.499,333.369c-0.701-0.701-1.052-1.547-1.052-2.536s0.351-1.835,1.052-2.536s1.547-1.052,2.537-1.052
		s1.835,0.351,2.536,1.052c0.702,0.701,1.052,1.547,1.052,2.536s-0.351,1.835-1.052,2.536c-0.701,0.701-1.546,1.052-2.536,1.052
		S432.2,334.07,431.499,333.369z M432.256,329.054c-0.492,0.491-0.737,1.085-0.737,1.779s0.246,1.288,0.737,1.779
		c0.491,0.491,1.084,0.737,1.779,0.737s1.288-0.246,1.779-0.737s0.737-1.085,0.737-1.779s-0.246-1.288-0.737-1.779
		s-1.084-0.737-1.779-0.737S432.747,328.563,432.256,329.054z"/>
	<path fill="#293D41" d="M442.539,333.684c-0.488-0.488-0.732-1.078-0.732-1.77v-4.601h1.071v4.601c0,0.396,0.14,0.734,0.418,1.013
		c0.282,0.282,0.62,0.423,1.013,0.423c0.396,0,0.734-0.141,1.013-0.423c0.282-0.278,0.422-0.616,0.422-1.013v-4.601h1.072v4.601
		c0,0.691-0.246,1.281-0.737,1.77c-0.488,0.488-1.078,0.732-1.77,0.732C443.62,334.416,443.03,334.172,442.539,333.684z"/>
	<path fill="#293D41" d="M450.294,334.416c-0.465-0.02-0.895-0.144-1.288-0.373c-0.446-0.259-0.749-0.606-0.909-1.042l1.002-0.369
		c0.082,0.217,0.251,0.392,0.506,0.526c0.226,0.114,0.472,0.179,0.737,0.191c0.41,0.017,0.749-0.083,1.018-0.3
		c0.226-0.184,0.346-0.394,0.359-0.629c0.02-0.449-0.451-0.808-1.411-1.077c-1.504-0.422-2.233-1.139-2.188-2.147
		c0.029-0.708,0.333-1.237,0.909-1.588c0.439-0.269,0.967-0.389,1.583-0.358c0.747,0.032,1.347,0.293,1.799,0.781l-0.781,0.728
		c-0.256-0.275-0.611-0.423-1.067-0.442c-0.321-0.014-0.595,0.027-0.821,0.123c-0.354,0.15-0.539,0.419-0.555,0.806
		c-0.02,0.442,0.45,0.798,1.411,1.066c0.865,0.243,1.478,0.601,1.838,1.072c0.249,0.327,0.365,0.689,0.349,1.086
		c-0.026,0.558-0.279,1.029-0.757,1.416c-0.446,0.357-0.98,0.535-1.603,0.535C450.381,334.421,450.337,334.42,450.294,334.416z"/>
	<path fill="#293D41" d="M454.718,333.369c-0.701-0.701-1.052-1.547-1.052-2.536s0.351-1.835,1.052-2.536s1.547-1.052,2.537-1.052
		s1.835,0.351,2.536,1.052c0.702,0.701,1.052,1.547,1.052,2.536s-0.351,1.835-1.052,2.536c-0.701,0.701-1.546,1.052-2.536,1.052
		S455.419,334.07,454.718,333.369z M455.475,329.054c-0.492,0.491-0.737,1.085-0.737,1.779s0.246,1.288,0.737,1.779
		c0.491,0.491,1.084,0.737,1.779,0.737s1.288-0.246,1.779-0.737s0.737-1.085,0.737-1.779s-0.246-1.288-0.737-1.779
		s-1.084-0.737-1.779-0.737S455.966,328.563,455.475,329.054z"/>
	<path fill="#293D41" d="M464.951,334.353v-7.034h1.848c0.97,0,1.799,0.344,2.487,1.032c0.685,0.688,1.027,1.518,1.027,2.487
		c0,0.967-0.342,1.794-1.027,2.482c-0.688,0.688-1.517,1.032-2.487,1.032H464.951z M466.013,333.291h0.787
		c0.675,0,1.253-0.241,1.735-0.723c0.478-0.479,0.717-1.056,0.717-1.73c0-0.679-0.239-1.257-0.717-1.735
		c-0.482-0.481-1.061-0.723-1.735-0.723h-0.787V333.291z"/>
	<path fill="#293D41" d="M475.195,327.318v1.066h-2.521v1.907h1.946v1.067h-1.946v1.927h2.521v1.066h-3.588v-7.034H475.195z"/>
	<path fill="#293D41" d="M484.313,334.353h-1.205l-1.539-2.964h-1.204v2.964h-1.067v-7.034h2.596c0.56,0,1.039,0.2,1.435,0.6
		c0.4,0.396,0.6,0.877,0.6,1.44c0,0.413-0.116,0.79-0.349,1.131c-0.226,0.334-0.523,0.58-0.89,0.737L484.313,334.353z
		 M481.895,330.322c0.265,0,0.493-0.096,0.683-0.285c0.187-0.188,0.28-0.413,0.28-0.679c0-0.269-0.093-0.498-0.28-0.688
		c-0.19-0.189-0.418-0.285-0.683-0.285h-1.529v1.938H481.895z"/>
	<path fill="#293D41" d="M488.908,327.318v1.066h-2.521v1.907h1.946v1.067h-1.946v1.927h2.521v1.066h-3.588v-7.034H488.908z"/>
	<path fill="#293D41" d="M493.445,333.35c0.426,0,0.824-0.1,1.194-0.3v1.165c-0.387,0.138-0.785,0.206-1.194,0.206
		c-0.99,0-1.835-0.351-2.537-1.052s-1.052-1.547-1.052-2.536s0.351-1.835,1.052-2.536s1.547-1.052,2.537-1.052
		c0.41,0,0.808,0.066,1.194,0.201v1.17c-0.37-0.203-0.769-0.305-1.194-0.305c-0.695,0-1.288,0.247-1.78,0.742
		c-0.491,0.491-0.737,1.085-0.737,1.779s0.246,1.288,0.737,1.779C492.157,333.104,492.75,333.35,493.445,333.35z"/>
	<path fill="#293D41" d="M496.714,333.684c-0.488-0.488-0.732-1.078-0.732-1.77v-4.601h1.071v4.601c0,0.396,0.14,0.734,0.418,1.013
		c0.282,0.282,0.62,0.423,1.013,0.423c0.396,0,0.734-0.141,1.013-0.423c0.282-0.278,0.422-0.616,0.422-1.013v-4.601h1.072v4.601
		c0,0.691-0.246,1.281-0.737,1.77c-0.488,0.488-1.078,0.732-1.77,0.732C497.795,334.416,497.205,334.172,496.714,333.684z"/>
	<path fill="#293D41" d="M507.557,334.353h-1.205l-1.539-2.964h-1.204v2.964h-1.067v-7.034h2.596c0.56,0,1.039,0.2,1.435,0.6
		c0.4,0.396,0.6,0.877,0.6,1.44c0,0.413-0.116,0.79-0.349,1.131c-0.226,0.334-0.523,0.58-0.89,0.737L507.557,334.353z
		 M505.138,330.322c0.265,0,0.493-0.096,0.683-0.285c0.187-0.188,0.28-0.413,0.28-0.679c0-0.269-0.093-0.498-0.28-0.688
		c-0.19-0.189-0.418-0.285-0.683-0.285h-1.529v1.938H505.138z"/>
	<path fill="#293D41" d="M510.437,334.416c-0.465-0.02-0.895-0.144-1.288-0.373c-0.446-0.259-0.749-0.606-0.909-1.042l1.002-0.369
		c0.082,0.217,0.251,0.392,0.506,0.526c0.226,0.114,0.472,0.179,0.737,0.191c0.41,0.017,0.749-0.083,1.018-0.3
		c0.226-0.184,0.346-0.394,0.359-0.629c0.02-0.449-0.451-0.808-1.411-1.077c-1.504-0.422-2.233-1.139-2.188-2.147
		c0.029-0.708,0.333-1.237,0.909-1.588c0.439-0.269,0.967-0.389,1.583-0.358c0.747,0.032,1.347,0.293,1.799,0.781l-0.781,0.728
		c-0.256-0.275-0.611-0.423-1.067-0.442c-0.321-0.014-0.595,0.027-0.821,0.123c-0.354,0.15-0.539,0.419-0.555,0.806
		c-0.02,0.442,0.45,0.798,1.411,1.066c0.865,0.243,1.478,0.601,1.838,1.072c0.249,0.327,0.365,0.689,0.349,1.086
		c-0.026,0.558-0.279,1.029-0.757,1.416c-0.446,0.357-0.98,0.535-1.603,0.535C510.523,334.421,510.479,334.42,510.437,334.416z"/>
	<path fill="#293D41" d="M514.86,333.369c-0.701-0.701-1.052-1.547-1.052-2.536s0.351-1.835,1.052-2.536s1.547-1.052,2.537-1.052
		s1.835,0.351,2.536,1.052c0.702,0.701,1.052,1.547,1.052,2.536s-0.351,1.835-1.052,2.536c-0.701,0.701-1.546,1.052-2.536,1.052
		S515.562,334.07,514.86,333.369z M515.618,329.054c-0.492,0.491-0.737,1.085-0.737,1.779s0.246,1.288,0.737,1.779
		c0.491,0.491,1.084,0.737,1.779,0.737s1.288-0.246,1.779-0.737s0.737-1.085,0.737-1.779s-0.246-1.288-0.737-1.779
		s-1.084-0.737-1.779-0.737S516.109,328.563,515.618,329.054z"/>
	<path fill="#293D41" d="M524.086,334.416c-0.465-0.02-0.895-0.144-1.288-0.373c-0.446-0.259-0.749-0.606-0.909-1.042l1.002-0.369
		c0.082,0.217,0.251,0.392,0.506,0.526c0.226,0.114,0.472,0.179,0.737,0.191c0.41,0.017,0.749-0.083,1.018-0.3
		c0.226-0.184,0.346-0.394,0.359-0.629c0.02-0.449-0.451-0.808-1.411-1.077c-1.504-0.422-2.233-1.139-2.188-2.147
		c0.029-0.708,0.333-1.237,0.909-1.588c0.439-0.269,0.967-0.389,1.583-0.358c0.747,0.032,1.347,0.293,1.799,0.781l-0.781,0.728
		c-0.256-0.275-0.611-0.423-1.067-0.442c-0.321-0.014-0.595,0.027-0.821,0.123c-0.354,0.15-0.539,0.419-0.555,0.806
		c-0.02,0.442,0.45,0.798,1.411,1.066c0.865,0.243,1.478,0.601,1.838,1.072c0.249,0.327,0.365,0.689,0.349,1.086
		c-0.026,0.558-0.279,1.029-0.757,1.416c-0.446,0.357-0.98,0.535-1.603,0.535C524.173,334.421,524.129,334.42,524.086,334.416z"/>
</g>
<rect x="421.515" y="253.75" opacity="0.6" fill="#999B9E" width="10.75" height="9.849"/>
<rect x="421.515" y="273.786" opacity="0.6" fill="#999B9E" width="10.75" height="9.848"/>
<rect x="421.515" y="294.429" opacity="0.6" fill="#999B9E" width="10.75" height="9.846"/>
<g>
	<path fill="#293D41" d="M552.265,323.409c0.632-0.804,0.966-1.92,0.966-3.228c0-1.306-0.334-2.422-0.966-3.226
		c-0.694-0.886-1.731-1.353-2.997-1.353c-1.267,0-2.304,0.467-2.999,1.353c-0.632,0.804-0.965,1.92-0.965,3.226
		c0,1.308,0.333,2.424,0.965,3.228c0.694,0.883,1.731,1.351,2.999,1.351C550.534,324.76,551.57,324.292,552.265,323.409z
		 M549.268,322.79c-1.539,0-2.087-1.348-2.087-2.608c0-1.26,0.548-2.606,2.087-2.606c1.538,0,2.085,1.347,2.085,2.606
		C551.354,321.442,550.806,322.79,549.268,322.79z"/>
	<path fill="#293D41" d="M543.425,320.32c0.277-0.259,1.012-0.947,1.012-2.029c0-1.345-1.067-2.734-2.852-2.734
		c-1.229,0-2.19,0.535-2.708,1.506c-0.323,0.607-0.372,1.191-0.377,1.394h1.942c0.011-0.094,0.045-0.292,0.146-0.48
		c0.119-0.224,0.34-0.481,0.997-0.481c0.669,0,0.913,0.477,0.913,0.797c0,0.223-0.197,0.427-0.399,0.615
		c-0.713,0.668-3.218,3.229-3.323,3.338l-0.276,0.281v2.027h6.144v-1.939h-3.515C541.936,321.795,543.016,320.705,543.425,320.32z"
		/>
	<path fill="#293D41" d="M565.17,328.106c-0.693-0.884-1.73-1.353-2.996-1.353c-1.268,0-2.304,0.469-2.998,1.353
		c-0.632,0.804-0.966,1.921-0.966,3.226c0,1.307,0.333,2.423,0.966,3.228c0.694,0.884,1.73,1.352,2.998,1.352
		c1.266,0,2.303-0.468,2.996-1.352c0.633-0.805,0.966-1.921,0.966-3.228C566.136,330.027,565.803,328.91,565.17,328.106z
		 M562.174,333.94c-1.539,0-2.086-1.347-2.086-2.608c0-1.259,0.547-2.606,2.086-2.606c1.538,0,2.085,1.348,2.085,2.606
		C564.259,332.594,563.711,333.94,562.174,333.94z"/>
	<path fill="#293D41" d="M556.33,331.471c0.276-0.259,1.013-0.948,1.013-2.029c0-1.344-1.067-2.733-2.852-2.733
		c-1.229,0-2.19,0.533-2.708,1.505c-0.324,0.607-0.372,1.191-0.377,1.394h1.942c0.011-0.093,0.044-0.292,0.146-0.481
		c0.119-0.223,0.34-0.479,0.997-0.479c0.669,0,0.913,0.475,0.913,0.795c0,0.223-0.198,0.427-0.4,0.616
		c-0.712,0.668-3.217,3.228-3.323,3.337l-0.275,0.282v2.025h6.144v-1.938h-3.515C554.841,332.944,555.922,331.854,556.33,331.471z"
		/>
	<polygon fill="#293D41" points="555.544,324.553 557.511,324.553 557.511,315.73 553.493,315.73 553.493,317.697 555.544,317.697 	
		"/>
	<polygon fill="#293D41" points="563.383,324.553 565.35,324.553 565.35,319.523 561.878,319.523 563.697,315.702 561.52,315.702 
		558.763,321.49 563.383,321.49 	"/>
</g>
<path fill="#5FBB46" d="M576.49,343.355l-0.629,1.973c-7.532,23.613-20.86,45.771-38.543,64.079
	c-30.705,31.785-71.885,49.709-115.953,50.472c-0.917,0.015-1.835,0.022-2.752,0.022c-10.147,0-20.615-0.99-31.112-2.943
	l-1.901-0.354l-20.232,32.456l3.725,0.975c15.758,4.123,31.795,6.128,49.028,6.128c1.286,0,2.575-0.012,3.871-0.034
	c53.721-0.931,103.924-22.787,141.361-61.542c22.641-23.438,40.131-54.567,49.25-87.655l0.989-3.589L576.49,343.355z"/>
<path fill="#E8DB34" d="M295.673,406.142c-16.58-18.125-29.101-40.486-36.21-64.668c-12.464-42.399-7.702-87.058,13.409-125.748
	c5.138-9.416,11.428-18.601,18.694-27.301l1.38-1.653l-21.165-30.701l-2.405,2.59c-10.884,11.722-20.15,24.707-28.33,39.698
	c-25.733,47.164-31.536,101.609-16.338,153.308c9.482,32.254,26.834,61.699,50.181,85.152l2.523,2.534l19.712-31.625
	L295.673,406.142z"/>
<rect fill="none" width="841.89" height="595.28"/>
</svg>
